# Blender v2.80 (sub 75) OBJ File: 'brazier.blend'
# www.blender.org
mtllib brazier_wall.mtl
o BOWL_Cube.001
v 0.187500 0.312500 0.937500
v 0.187500 0.312500 0.062500
v 0.812500 0.312500 0.937500
v 0.812500 0.312500 0.062500
v 0.062500 0.312500 0.812500
v 0.375000 0.125000 0.625000
v 0.937500 0.312500 0.812500
v 0.062500 0.312500 0.187500
v 0.625000 0.062500 0.625000
v 0.625000 0.125000 0.625000
v 0.375000 0.125000 0.375000
v 0.812500 0.250000 0.812500
v 0.937500 0.312500 0.187500
v 0.375000 0.062500 0.625000
v 0.625000 0.125000 0.375000
v 0.187500 0.250000 0.812500
v 0.812500 0.312500 0.812500
v 0.187500 0.312500 0.812500
v 0.812500 0.312500 0.187500
v 0.187500 0.312500 0.187500
v 0.187500 0.250000 0.937500
v 0.062500 0.250000 0.812500
v 0.937500 0.250000 0.812500
v 0.187500 0.250000 0.062500
v 0.812500 0.250000 0.937500
v 0.062500 0.250000 0.187500
v 0.937500 0.250000 0.187500
v 0.812500 0.250000 0.062500
v 0.187500 0.250000 0.187500
v 0.375000 0.062500 0.375000
v 0.812500 0.250000 0.187500
v 0.625000 0.062500 0.375000
vt 0.750000 0.875000
vt 0.125000 0.875000
vt 0.125000 1.000000
vt 0.750000 1.000000
vt 0.750000 1.000000
vt 0.750000 0.750000
vt 1.000000 0.750000
vt 1.000000 1.000000
vt 0.125000 0.812500
vt 0.125000 0.875000
vt 0.000000 0.875000
vt 0.000000 0.812500
vt 0.750000 0.812500
vt 0.750000 0.875000
vt 0.125000 0.875000
vt 0.125000 0.812500
vt 0.750000 0.875000
vt 0.125000 0.875000
vt 0.125000 1.000000
vt 0.750000 1.000000
vt 0.000000 0.812500
vt 0.000000 0.875000
vt 0.125000 0.812500
vt 0.125000 0.875000
vt 0.000000 0.875000
vt 0.000000 0.812500
vt 0.750000 1.000000
vt 0.750000 0.875000
vt 0.125000 0.875000
vt 0.125000 1.000000
vt 0.750000 0.812500
vt 0.750000 0.875000
vt 0.000000 0.812500
vt 0.125000 0.812500
vt 0.125000 0.875000
vt 0.000000 0.875000
vt 0.187500 0.562500
vt 0.000000 0.312500
vt 0.625000 0.312500
vt 0.437500 0.562500
vt 0.437500 0.562500
vt 0.187500 0.562500
vt 0.000000 0.312500
vt 0.625000 0.312500
vt 0.187500 0.562500
vt 0.000000 0.312500
vt 0.625000 0.312500
vt 0.437500 0.562500
vt 0.437500 0.562500
vt 0.187500 0.562500
vt 0.000000 0.312500
vt 0.625000 0.312500
vt 0.125000 1.000000
vt 0.750000 1.000000
vt 0.750000 0.875000
vt 0.125000 0.875000
vt 0.750000 0.812500
vt 0.750000 0.875000
vt 0.750000 0.812500
vt 0.750000 0.875000
vt 0.187500 0.562500
vt 0.437500 0.562500
vt 0.625000 0.812500
vt 0.000000 0.812500
vt 0.187500 0.562500
vt 0.437500 0.562500
vt 0.625000 0.812500
vt 0.000000 0.812500
vt 0.187500 0.562500
vt 0.437500 0.562500
vt 0.625000 0.812500
vt 0.000000 0.812500
vt 0.187500 0.562500
vt 0.437500 0.562500
vt 0.625000 0.812500
vt 0.000000 0.812500
vt 0.750000 0.875000
vt 0.125000 0.875000
vt 0.125000 1.000000
vt 0.750000 1.000000
vt 0.750000 0.875000
vt 0.125000 0.875000
vt 0.125000 1.000000
vt 0.750000 1.000000
vt -0.000000 1.000000
vt -0.000000 1.000000
vt 0.000000 1.000000
vt -0.000000 1.000000
vt 0.750000 1.000000
vt 0.750000 0.750000
vt 1.000000 0.750000
vt 1.000000 1.000000
vt 0.750000 0.875000
vt 0.125000 0.875000
vt 0.125000 1.000000
vt 0.750000 1.000000
vt 0.125000 0.875000
vt 0.000000 1.000000
vt 0.125000 1.000000
vt 0.000000 1.000000
vt 0.000000 1.000000
vt -0.000000 1.000000
vt 0.750000 1.000000
vt 0.750000 0.875000
vn 0.0000 -1.0000 0.0000
vn 0.0000 1.0000 0.0000
vn -0.7071 0.0000 0.7071
vn 1.0000 0.0000 0.0000
vn 0.7071 0.0000 0.7071
vn 0.7071 0.0000 -0.7071
vn 0.0000 0.0000 1.0000
vn -0.7071 0.0000 -0.7071
vn 0.7071 -0.7071 0.0000
vn 0.0000 -0.7071 0.7071
vn 0.0000 -0.7071 -0.7071
vn -0.7071 -0.7071 0.0000
vn 0.0000 0.0000 -1.0000
vn -1.0000 0.0000 0.0000
vn 0.0000 0.7071 -0.7071
vn 0.0000 0.7071 0.7071
vn -0.7071 0.7071 0.0000
vn 0.7071 0.7071 0.0000
usemtl MAIN
s off
f 22/1/1 26/2/1 29/3/1 16/4/1
f 11/5/2 6/6/2 10/7/2 15/8/2
f 21/9/3 1/10/3 5/11/3 22/12/3
f 27/13/4 13/14/4 7/15/4 23/16/4
f 27/17/1 23/18/1 12/19/1 31/20/1
f 25/21/5 23/16/5 7/15/5 3/22/5
f 28/23/6 4/24/6 13/25/6 27/26/6
f 18/27/2 1/28/2 3/29/2 17/30/2
f 21/9/7 25/31/7 3/32/7 1/10/7
f 24/33/8 26/34/8 8/35/8 2/36/8
f 32/37/9 31/38/9 12/39/9 9/40/9
f 14/41/10 9/42/10 12/43/10 16/44/10
f 30/45/11 29/46/11 31/47/11 32/48/11
f 30/49/12 14/50/12 16/51/12 29/52/12
f 18/53/2 20/54/2 8/55/2 5/56/2
f 24/57/13 2/58/13 4/24/13 28/23/13
f 26/34/14 22/59/14 5/60/14 8/35/14
f 10/61/15 6/62/15 18/63/15 17/64/15
f 11/65/16 15/66/16 19/67/16 20/68/16
f 15/69/17 10/70/17 17/71/17 19/72/17
f 6/73/18 11/74/18 20/75/18 18/76/18
f 24/77/1 28/78/1 31/79/1 29/80/1
f 25/81/1 21/82/1 16/83/1 12/84/1
f 26/2/1 24/85/1 29/3/1
f 21/82/1 22/86/1 16/83/1
f 23/18/1 25/87/1 12/19/1
f 28/78/1 27/88/1 31/79/1
f 14/89/1 30/90/1 32/91/1 9/92/1
f 7/93/2 13/94/2 19/95/2 17/96/2
f 2/97/2 8/98/2 20/99/2
f 3/29/2 7/100/2 17/30/2
f 5/56/2 1/101/2 18/53/2
f 13/94/2 4/102/2 19/95/2
f 2/97/2 20/99/2 19/103/2 4/104/2
o COAL_Cube
v 0.500000 0.066612 0.437500
v 0.500000 0.155000 0.525888
v 0.500000 0.155000 0.349112
v 0.500000 0.243388 0.437500
v 0.625000 0.066612 0.437500
v 0.625000 0.155000 0.525888
v 0.625000 0.155000 0.349112
v 0.625000 0.243388 0.437500
v 0.349112 0.155000 0.500000
v 0.437500 0.243388 0.500000
v 0.349112 0.155000 0.375000
v 0.437500 0.243388 0.375000
v 0.437500 0.066612 0.500000
v 0.525888 0.155000 0.500000
v 0.437500 0.066612 0.375000
v 0.525888 0.155000 0.375000
v 0.562500 0.066612 0.625000
v 0.474112 0.155000 0.625000
v 0.562500 0.066612 0.500000
v 0.474112 0.155000 0.500000
v 0.650888 0.155000 0.625000
v 0.562500 0.243388 0.625000
v 0.650888 0.155000 0.500000
v 0.562500 0.243388 0.500000
v 0.375000 0.155000 0.650888
v 0.375000 0.243388 0.562500
v 0.375000 0.066612 0.562500
v 0.375000 0.155000 0.474112
v 0.500000 0.155000 0.650888
v 0.500000 0.243388 0.562500
v 0.500000 0.066612 0.562500
v 0.500000 0.155000 0.474112
vt 0.750000 0.625000
vt 0.875000 0.625000
vt 0.875000 0.750000
vt 0.750000 0.750000
vt 0.875000 0.500000
vt 1.000000 0.500000
vt 1.000000 0.625000
vt 0.875000 0.625000
vt 0.750000 0.625000
vt 0.875000 0.625000
vt 0.875000 0.750000
vt 0.750000 0.750000
vt 0.875000 0.500000
vt 1.000000 0.500000
vt 1.000000 0.625000
vt 0.875000 0.625000
vt 0.875000 0.625000
vt 1.000000 0.625000
vt 1.000000 0.750000
vt 0.875000 0.750000
vt 1.000000 0.625000
vt 1.000000 0.750000
vt 0.750000 0.625000
vt 0.875000 0.625000
vt 0.875000 0.750000
vt 0.750000 0.750000
vt 0.875000 0.500000
vt 1.000000 0.500000
vt 1.000000 0.625000
vt 0.875000 0.625000
vt 0.750000 0.625000
vt 0.875000 0.625000
vt 0.875000 0.750000
vt 0.750000 0.750000
vt 0.875000 0.500000
vt 1.000000 0.500000
vt 1.000000 0.625000
vt 0.875000 0.625000
vt 0.875000 0.625000
vt 1.000000 0.625000
vt 1.000000 0.750000
vt 0.875000 0.750000
vt 1.000000 0.625000
vt 1.000000 0.750000
vt 0.750000 0.625000
vt 0.875000 0.625000
vt 0.875000 0.750000
vt 0.750000 0.750000
vt 0.875000 0.500000
vt 1.000000 0.500000
vt 1.000000 0.625000
vt 0.875000 0.625000
vt 0.750000 0.625000
vt 0.875000 0.625000
vt 0.875000 0.750000
vt 0.750000 0.750000
vt 0.875000 0.500000
vt 1.000000 0.500000
vt 1.000000 0.625000
vt 0.875000 0.625000
vt 0.875000 0.625000
vt 1.000000 0.625000
vt 1.000000 0.750000
vt 0.875000 0.750000
vt 1.000000 0.625000
vt 1.000000 0.750000
vt 0.750000 0.625000
vt 0.875000 0.625000
vt 0.875000 0.750000
vt 0.750000 0.750000
vt 0.875000 0.500000
vt 1.000000 0.500000
vt 1.000000 0.625000
vt 0.875000 0.625000
vt 0.750000 0.625000
vt 0.875000 0.625000
vt 0.875000 0.750000
vt 0.750000 0.750000
vt 0.875000 0.500000
vt 1.000000 0.500000
vt 1.000000 0.625000
vt 0.875000 0.625000
vt 0.875000 0.625000
vt 1.000000 0.625000
vt 1.000000 0.750000
vt 0.875000 0.750000
vt 1.000000 0.625000
vt 1.000000 0.750000
vn -1.0000 0.0000 0.0000
vn 0.0000 0.7071 -0.7071
vn 1.0000 0.0000 0.0000
vn 0.0000 -0.7071 0.7071
vn 0.0000 -0.7071 -0.7071
vn 0.0000 0.7071 0.7071
vn -0.7071 0.7071 0.0000
vn 0.0000 0.0000 -1.0000
vn 0.7071 -0.7071 0.0000
vn 0.0000 0.0000 1.0000
vn -0.7071 -0.7071 0.0000
vn 0.7071 0.7071 0.0000
usemtl MAIN
s off
f 33/105/19 34/106/19 36/107/19 35/108/19
f 35/109/20 36/110/20 40/111/20 39/112/20
f 39/113/21 40/114/21 38/115/21 37/116/21
f 37/117/22 38/118/22 34/119/22 33/120/22
f 35/121/23 39/122/23 37/123/23 33/124/23
f 40/114/24 36/125/24 34/126/24 38/115/24
f 41/127/25 42/128/25 44/129/25 43/130/25
f 43/131/26 44/132/26 48/133/26 47/134/26
f 47/135/27 48/136/27 46/137/27 45/138/27
f 45/139/28 46/140/28 42/141/28 41/142/28
f 43/143/29 47/144/29 45/145/29 41/146/29
f 48/136/30 44/147/30 42/148/30 46/137/30
f 49/149/29 50/150/29 52/151/29 51/152/29
f 51/153/26 52/154/26 56/155/26 55/156/26
f 55/157/30 56/158/30 54/159/30 53/160/30
f 53/161/28 54/162/28 50/163/28 49/164/28
f 51/165/27 55/166/27 53/167/27 49/168/27
f 56/158/25 52/169/25 50/170/25 54/159/25
f 57/171/19 58/172/19 60/173/19 59/174/19
f 59/175/23 60/176/23 64/177/23 63/178/23
f 63/179/21 64/180/21 62/181/21 61/182/21
f 61/183/24 62/184/24 58/185/24 57/186/24
f 59/187/22 63/188/22 61/189/22 57/190/22
f 64/180/20 60/191/20 58/192/20 62/181/20
o WALL_MOUNT_Cube.005
v 0.279029 0.281250 0.000000
v 0.279029 0.281250 0.062500
v 0.500000 0.502221 0.000000
v 0.500000 0.502221 0.062500
v 0.500000 0.060279 0.000000
v 0.500000 0.060279 0.062500
v 0.720971 0.281250 0.000000
v 0.720971 0.281250 0.062500
vt 1.000000 0.375000
vt 1.000000 0.437500
vt 0.687500 0.437500
vt 0.687500 0.375000
vt 1.000000 0.375000
vt 1.000000 0.437500
vt 0.687500 0.437500
vt 0.687500 0.375000
vt 1.000000 0.312500
vt 1.000000 0.375000
vt 0.687500 0.375000
vt 0.687500 0.312500
vt 1.000000 0.312500
vt 1.000000 0.375000
vt 0.687500 0.375000
vt 0.687500 0.312500
vt 0.687500 0.000000
vt 1.000000 0.000000
vt 1.000000 0.312500
vt 0.687500 0.312500
vt 0.687500 0.000000
vt 1.000000 0.000000
vn -0.7071 0.7071 0.0000
vn 0.7071 0.7071 0.0000
vn 0.7071 -0.7071 0.0000
vn -0.7071 -0.7071 0.0000
vn 0.0000 0.0000 -1.0000
vn -0.0000 0.0000 1.0000
usemtl MAIN
s off
f 65/193/31 66/194/31 68/195/31 67/196/31
f 67/197/32 68/198/32 72/199/32 71/200/32
f 71/201/33 72/202/33 70/203/33 69/204/33
f 69/205/34 70/206/34 66/207/34 65/208/34
f 67/209/35 71/210/35 69/205/35 65/208/35
f 72/211/36 68/212/36 66/213/36 70/214/36
o GRATING_Cube.006
v 0.187500 0.437500 0.187500
v 0.187500 0.500000 0.187500
v 0.187500 0.437500 0.812500
v 0.187500 0.500000 0.812500
v 0.125000 0.437500 0.187500
v 0.125000 0.500000 0.187500
v 0.125000 0.437500 0.812500
v 0.125000 0.500000 0.812500
v 0.171875 0.312500 0.203125
v 0.171875 0.437500 0.203125
v 0.171875 0.312500 0.234375
v 0.171875 0.437500 0.234375
v 0.140625 0.312500 0.203125
v 0.140625 0.437500 0.203125
v 0.140625 0.312500 0.234375
v 0.140625 0.437500 0.234375
v 0.171875 0.312500 0.390625
v 0.171875 0.437500 0.390625
v 0.171875 0.312500 0.421875
v 0.171875 0.437500 0.421875
v 0.140625 0.312500 0.390625
v 0.140625 0.437500 0.390625
v 0.140625 0.312500 0.421875
v 0.140625 0.437500 0.421875
v 0.171875 0.312500 0.796875
v 0.171875 0.437500 0.796875
v 0.171875 0.312500 0.765625
v 0.171875 0.437500 0.765625
v 0.140625 0.312500 0.796875
v 0.140625 0.437500 0.796875
v 0.140625 0.312500 0.765625
v 0.140625 0.437500 0.765625
v 0.171875 0.312500 0.609375
v 0.171875 0.437500 0.609375
v 0.171875 0.312500 0.578125
v 0.171875 0.437500 0.578125
v 0.140625 0.312500 0.609375
v 0.140625 0.437500 0.609375
v 0.140625 0.312500 0.578125
v 0.140625 0.437500 0.578125
v 0.812500 0.500000 0.812500
v 0.812500 0.437500 0.812500
v 0.812500 0.437500 0.187500
v 0.812500 0.500000 0.187500
v 0.187500 0.437500 0.125000
v 0.187500 0.500000 0.125000
v 0.812500 0.437500 0.125000
v 0.812500 0.500000 0.125000
v 0.812500 0.437500 0.875000
v 0.812500 0.500000 0.875000
v 0.187500 0.437500 0.875000
v 0.187500 0.500000 0.875000
v 0.875000 0.437500 0.812500
v 0.875000 0.500000 0.812500
v 0.875000 0.437500 0.187500
v 0.875000 0.500000 0.187500
v 0.203125 0.312500 0.828125
v 0.203125 0.437500 0.828125
v 0.234375 0.312500 0.828125
v 0.234375 0.437500 0.828125
v 0.203125 0.312500 0.859375
v 0.203125 0.437500 0.859375
v 0.234375 0.312500 0.859375
v 0.234375 0.437500 0.859375
v 0.390625 0.312500 0.828125
v 0.390625 0.437500 0.828125
v 0.421875 0.312500 0.828125
v 0.421875 0.437500 0.828125
v 0.390625 0.312500 0.859375
v 0.390625 0.437500 0.859375
v 0.421875 0.312500 0.859375
v 0.421875 0.437500 0.859375
v 0.796875 0.312500 0.828125
v 0.796875 0.437500 0.828125
v 0.765625 0.312500 0.828125
v 0.765625 0.437500 0.828125
v 0.796875 0.312500 0.859375
v 0.796875 0.437500 0.859375
v 0.765625 0.312500 0.859375
v 0.765625 0.437500 0.859375
v 0.609375 0.312500 0.828125
v 0.609375 0.437500 0.828125
v 0.578125 0.312500 0.828125
v 0.578125 0.437500 0.828125
v 0.609375 0.312500 0.859375
v 0.609375 0.437500 0.859375
v 0.578125 0.312500 0.859375
v 0.578125 0.437500 0.859375
v 0.828125 0.312500 0.796875
v 0.828125 0.437500 0.796875
v 0.828125 0.312500 0.765625
v 0.828125 0.437500 0.765625
v 0.859375 0.312500 0.796875
v 0.859375 0.437500 0.796875
v 0.859375 0.312500 0.765625
v 0.859375 0.437500 0.765625
v 0.828125 0.312500 0.609375
v 0.828125 0.437500 0.609375
v 0.828125 0.312500 0.578125
v 0.828125 0.437500 0.578125
v 0.859375 0.312500 0.609375
v 0.859375 0.437500 0.609375
v 0.859375 0.312500 0.578125
v 0.859375 0.437500 0.578125
v 0.828125 0.312500 0.203125
v 0.828125 0.437500 0.203125
v 0.828125 0.312500 0.234375
v 0.828125 0.437500 0.234375
v 0.859375 0.312500 0.203125
v 0.859375 0.437500 0.203125
v 0.859375 0.312500 0.234375
v 0.859375 0.437500 0.234375
v 0.828125 0.312500 0.390625
v 0.828125 0.437500 0.390625
v 0.828125 0.312500 0.421875
v 0.828125 0.437500 0.421875
v 0.859375 0.312500 0.390625
v 0.859375 0.437500 0.390625
v 0.859375 0.312500 0.421875
v 0.859375 0.437500 0.421875
v 0.796875 0.312500 0.171875
v 0.796875 0.437500 0.171875
v 0.765625 0.312500 0.171875
v 0.765625 0.437500 0.171875
v 0.796875 0.312500 0.140625
v 0.796875 0.437500 0.140625
v 0.765625 0.312500 0.140625
v 0.765625 0.437500 0.140625
v 0.609375 0.312500 0.171875
v 0.609375 0.437500 0.171875
v 0.578125 0.312500 0.171875
v 0.578125 0.437500 0.171875
v 0.609375 0.312500 0.140625
v 0.609375 0.437500 0.140625
v 0.578125 0.312500 0.140625
v 0.578125 0.437500 0.140625
v 0.203125 0.312500 0.171875
v 0.203125 0.437500 0.171875
v 0.234375 0.312500 0.171875
v 0.234375 0.437500 0.171875
v 0.203125 0.312500 0.140625
v 0.203125 0.437500 0.140625
v 0.234375 0.312500 0.140625
v 0.234375 0.437500 0.140625
v 0.390625 0.312500 0.171875
v 0.390625 0.437500 0.171875
v 0.421875 0.312500 0.171875
v 0.421875 0.437500 0.171875
v 0.390625 0.312500 0.140625
v 0.390625 0.437500 0.140625
v 0.421875 0.312500 0.140625
v 0.421875 0.437500 0.140625
vt -0.000000 0.250000
vt 0.625000 0.250000
vt 0.625000 0.312500
vt 0.000000 0.312500
vt -0.000000 0.187500
vt 0.625000 0.187500
vt 0.625000 0.250000
vt -0.000000 0.250000
vt 0.187500 0.000000
vt 0.187500 0.125000
vt 0.125000 0.125000
vt 0.125000 0.000000
vt 0.062500 0.125000
vt 0.062500 0.000000
vt 0.000000 0.125000
vt 0.000000 0.000000
vt 0.250000 0.000000
vt 0.250000 0.125000
vt 0.312500 0.000000
vt 0.312500 0.125000
vt 0.250000 0.125000
vt 0.250000 0.000000
vt 0.187500 0.125000
vt 0.187500 0.000000
vt 0.125000 0.125000
vt 0.125000 0.000000
vt 0.375000 0.000000
vt 0.375000 0.125000
vt -0.000000 0.250000
vt 0.625000 0.250000
vt 0.625000 0.312500
vt 0.000000 0.312500
vt 0.500000 0.000000
vt 0.562500 0.000000
vt 0.562500 0.125000
vt 0.500000 0.125000
vt 0.625000 0.000000
vt 0.625000 0.125000
vt 0.375000 0.000000
vt 0.437500 0.000000
vt 0.437500 0.125000
vt 0.375000 0.125000
vt 0.375000 0.000000
vt 0.437500 0.000000
vt 0.437500 0.125000
vt 0.375000 0.125000
vt 0.500000 0.000000
vt 0.500000 0.125000
vt 0.250000 0.000000
vt 0.312500 0.000000
vt 0.312500 0.125000
vt 0.250000 0.125000
vt -0.000000 0.187500
vt 0.625000 0.187500
vt 0.625000 0.250000
vt 0.625000 0.312500
vt 0.000000 0.312500
vt 0.000000 0.250000
vt 0.625000 0.187500
vt 0.625000 0.250000
vt -0.000000 0.250000
vt -0.000000 0.187500
vt 0.625000 0.250000
vt 0.625000 0.312500
vt 0.000000 0.312500
vt 0.000000 0.250000
vt 0.625000 0.187500
vt 0.000000 0.187500
vt 0.625000 0.250000
vt 0.625000 0.312500
vt 0.000000 0.312500
vt 0.000000 0.250000
vt 0.625000 0.187500
vt 0.625000 0.250000
vt 0.000000 0.250000
vt 0.000000 0.187500
vt 0.625000 0.250000
vt 0.625000 0.312500
vt 0.000000 0.312500
vt 0.000000 0.250000
vt 0.625000 0.187500
vt -0.000000 0.187500
vt -0.000000 0.250000
vt 0.625000 0.250000
vt 0.625000 0.312500
vt 0.000000 0.312500
vt -0.000000 0.187500
vt 0.625000 0.187500
vt 0.625000 0.250000
vt -0.000000 0.250000
vt 0.000000 0.250000
vt 0.625000 0.250000
vt 0.625000 0.312500
vt 0.000000 0.312500
vt -0.000000 0.187500
vt 0.625000 0.187500
vt 0.625000 0.250000
vt 0.687500 0.312500
vt 0.625000 0.312500
vt 0.687500 0.250000
vt 0.625000 0.312500
vt 0.687500 0.187500
vt 0.687500 0.250000
vt 0.687500 0.250000
vt 0.687500 0.312500
vt 0.687500 0.187500
vt 0.687500 0.250000
vt 0.625000 0.250000
vt 0.687500 0.250000
vt 0.687500 0.312500
vt 0.687500 0.312500
vt 0.625000 0.312500
vt 0.687500 0.250000
vt 0.687500 0.187500
vt 0.687500 0.250000
vt 0.687500 0.312500
vt 0.625000 0.250000
vt 0.625000 0.312500
vt 0.687500 0.250000
vt 0.687500 0.312500
vt 0.687500 0.187500
vt 0.687500 0.250000
vt 0.187500 0.000000
vt 0.187500 0.125000
vt 0.125000 0.125000
vt 0.125000 0.000000
vt 0.062500 0.125000
vt 0.062500 0.000000
vt 0.000000 0.125000
vt 0.000000 0.000000
vt 0.250000 0.000000
vt 0.250000 0.125000
vt 0.312500 0.000000
vt 0.312500 0.125000
vt 0.250000 0.125000
vt 0.250000 0.000000
vt 0.187500 0.125000
vt 0.187500 0.000000
vt 0.125000 0.125000
vt 0.125000 0.000000
vt 0.375000 0.000000
vt 0.375000 0.125000
vt 0.500000 0.000000
vt 0.562500 0.000000
vt 0.562500 0.125000
vt 0.500000 0.125000
vt 0.625000 0.000000
vt 0.625000 0.125000
vt 0.375000 0.000000
vt 0.437500 0.000000
vt 0.437500 0.125000
vt 0.375000 0.125000
vt 0.375000 0.000000
vt 0.437500 0.000000
vt 0.437500 0.125000
vt 0.375000 0.125000
vt 0.500000 0.000000
vt 0.500000 0.125000
vt 0.250000 0.000000
vt 0.312500 0.000000
vt 0.312500 0.125000
vt 0.250000 0.125000
vt 0.187500 0.000000
vt 0.187500 0.125000
vt 0.125000 0.125000
vt 0.125000 0.000000
vt 0.062500 0.125000
vt 0.062500 0.000000
vt 0.000000 0.125000
vt 0.000000 0.000000
vt 0.250000 0.000000
vt 0.250000 0.125000
vt 0.312500 0.000000
vt 0.312500 0.125000
vt 0.250000 0.125000
vt 0.250000 0.000000
vt 0.187500 0.125000
vt 0.187500 0.000000
vt 0.125000 0.125000
vt 0.125000 0.000000
vt 0.375000 0.000000
vt 0.375000 0.125000
vt 0.500000 0.000000
vt 0.562500 0.000000
vt 0.562500 0.125000
vt 0.500000 0.125000
vt 0.625000 0.000000
vt 0.625000 0.125000
vt 0.375000 0.000000
vt 0.437500 0.000000
vt 0.437500 0.125000
vt 0.375000 0.125000
vt 0.375000 0.000000
vt 0.437500 0.000000
vt 0.437500 0.125000
vt 0.375000 0.125000
vt 0.500000 0.000000
vt 0.500000 0.125000
vt 0.250000 0.000000
vt 0.312500 0.000000
vt 0.312500 0.125000
vt 0.250000 0.125000
vt 0.187500 0.000000
vt 0.187500 0.125000
vt 0.125000 0.125000
vt 0.125000 0.000000
vt 0.062500 0.125000
vt 0.062500 0.000000
vt 0.000000 0.125000
vt 0.000000 0.000000
vt 0.250000 0.000000
vt 0.250000 0.125000
vt 0.312500 0.000000
vt 0.312500 0.125000
vt 0.250000 0.125000
vt 0.250000 0.000000
vt 0.187500 0.125000
vt 0.187500 0.000000
vt 0.125000 0.125000
vt 0.125000 0.000000
vt 0.375000 0.000000
vt 0.375000 0.125000
vt 0.500000 0.000000
vt 0.562500 0.000000
vt 0.562500 0.125000
vt 0.500000 0.125000
vt 0.625000 0.000000
vt 0.625000 0.125000
vt 0.375000 0.000000
vt 0.437500 0.000000
vt 0.437500 0.125000
vt 0.375000 0.125000
vt 0.375000 0.000000
vt 0.437500 0.000000
vt 0.437500 0.125000
vt 0.375000 0.125000
vt 0.500000 0.000000
vt 0.500000 0.125000
vt 0.250000 0.000000
vt 0.312500 0.000000
vt 0.312500 0.125000
vt 0.250000 0.125000
vn 0.0000 1.0000 -0.0000
vn 1.0000 0.0000 -0.0000
vn -0.0000 0.0000 1.0000
vn -1.0000 0.0000 0.0000
vn 0.0000 0.0000 -1.0000
vn 0.0000 -1.0000 -0.0000
vn 0.7071 0.0000 -0.7071
vn 0.7071 0.0000 0.7071
vn -0.7071 0.0000 0.7071
vn -0.7071 0.0000 -0.7071
usemtl MAIN
s off
f 78/215/37 80/216/37 76/217/37 74/218/37
f 75/219/38 73/220/38 74/221/38 76/222/38
f 81/223/38 82/224/38 84/225/38 83/226/38
f 83/226/39 84/225/39 88/227/39 87/228/39
f 87/228/40 88/227/40 86/229/40 85/230/40
f 85/231/41 86/232/41 82/224/41 81/223/41
f 89/233/38 90/234/38 92/235/38 91/236/38
f 91/236/39 92/235/39 96/237/39 95/238/39
f 95/238/40 96/237/40 94/239/40 93/240/40
f 93/241/41 94/242/41 90/234/41 89/233/41
f 73/243/42 75/244/42 79/245/42 77/246/42
f 97/247/38 99/248/38 100/249/38 98/250/38
f 99/248/41 103/251/41 104/252/41 100/249/41
f 103/253/40 101/254/40 102/255/40 104/256/40
f 101/254/39 97/247/39 98/250/39 102/255/39
f 105/257/38 107/258/38 108/259/38 106/260/38
f 107/258/41 111/261/41 112/262/41 108/259/41
f 111/263/40 109/264/40 110/265/40 112/266/40
f 109/264/39 105/257/39 106/260/39 110/265/39
f 77/267/40 79/268/40 80/216/40 78/215/40
f 118/269/37 74/270/37 116/271/37 120/272/37
f 115/273/39 116/274/39 74/275/39 73/276/39
f 73/277/42 117/278/42 119/279/42 115/280/42
f 117/281/41 118/269/41 120/272/41 119/282/41
f 122/283/37 113/284/37 76/285/37 124/286/37
f 75/287/41 76/288/41 113/289/41 114/290/41
f 114/291/42 121/292/42 123/293/42 75/294/42
f 121/295/39 122/283/39 124/286/39 123/296/39
f 126/297/37 128/298/37 116/299/37 113/300/37
f 115/301/40 114/302/40 113/303/40 116/304/40
f 114/305/42 115/306/42 127/307/42 125/308/42
f 125/309/38 127/310/38 128/298/38 126/297/38
f 119/311/42 127/312/42 115/313/42
f 116/274/37 128/314/37 120/315/37
f 119/316/43 120/317/43 128/298/43 127/310/43
f 121/292/42 114/291/42 125/318/42
f 113/284/37 122/283/37 126/319/37
f 121/295/44 125/320/44 126/321/44 122/283/44
f 79/322/42 75/323/42 123/324/42
f 76/325/37 80/326/37 124/327/37
f 79/268/45 123/328/45 124/327/45 80/216/45
f 74/329/37 118/330/37 78/331/37
f 77/332/42 117/333/42 73/334/42
f 77/335/46 78/336/46 118/269/46 117/281/46
f 129/337/41 130/338/41 132/339/41 131/340/41
f 131/340/38 132/339/38 136/341/38 135/342/38
f 135/342/39 136/341/39 134/343/39 133/344/39
f 133/345/40 134/346/40 130/338/40 129/337/40
f 137/347/41 138/348/41 140/349/41 139/350/41
f 139/350/38 140/349/38 144/351/38 143/352/38
f 143/352/39 144/351/39 142/353/39 141/354/39
f 141/355/40 142/356/40 138/348/40 137/347/40
f 145/357/41 147/358/41 148/359/41 146/360/41
f 147/358/40 151/361/40 152/362/40 148/359/40
f 151/363/39 149/364/39 150/365/39 152/366/39
f 149/364/38 145/357/38 146/360/38 150/365/38
f 153/367/41 155/368/41 156/369/41 154/370/41
f 155/368/40 159/371/40 160/372/40 156/369/40
f 159/373/39 157/374/39 158/375/39 160/376/39
f 157/374/38 153/367/38 154/370/38 158/375/38
f 161/377/40 162/378/40 164/379/40 163/380/40
f 163/380/41 164/379/41 168/381/41 167/382/41
f 167/382/38 168/381/38 166/383/38 165/384/38
f 165/385/39 166/386/39 162/378/39 161/377/39
f 169/387/40 170/388/40 172/389/40 171/390/40
f 171/390/41 172/389/41 176/391/41 175/392/41
f 175/392/38 176/391/38 174/393/38 173/394/38
f 173/395/39 174/396/39 170/388/39 169/387/39
f 177/397/40 179/398/40 180/399/40 178/400/40
f 179/398/39 183/401/39 184/402/39 180/399/39
f 183/403/38 181/404/38 182/405/38 184/406/38
f 181/404/41 177/397/41 178/400/41 182/405/41
f 185/407/40 187/408/40 188/409/40 186/410/40
f 187/408/39 191/411/39 192/412/39 188/409/39
f 191/413/38 189/414/38 190/415/38 192/416/38
f 189/414/41 185/407/41 186/410/41 190/415/41
f 193/417/39 194/418/39 196/419/39 195/420/39
f 195/420/40 196/419/40 200/421/40 199/422/40
f 199/422/41 200/421/41 198/423/41 197/424/41
f 197/425/38 198/426/38 194/418/38 193/417/38
f 201/427/39 202/428/39 204/429/39 203/430/39
f 203/430/40 204/429/40 208/431/40 207/432/40
f 207/432/41 208/431/41 206/433/41 205/434/41
f 205/435/38 206/436/38 202/428/38 201/427/38
f 209/437/39 211/438/39 212/439/39 210/440/39
f 211/438/38 215/441/38 216/442/38 212/439/38
f 215/443/41 213/444/41 214/445/41 216/446/41
f 213/444/40 209/437/40 210/440/40 214/445/40
f 217/447/39 219/448/39 220/449/39 218/450/39
f 219/448/38 223/451/38 224/452/38 220/449/38
f 223/453/41 221/454/41 222/455/41 224/456/41
f 221/454/40 217/447/40 218/450/40 222/455/40
