# Blender v2.80 (sub 75) OBJ File: 'manaweaving_station.blend'
# www.blender.org
mtllib manaweaving_altar_pedestal02.mtl
o SHAPE_PEDISTAL_MID_Cube.010
v 0.812500 0.750000 0.562500
v 0.843750 1.000000 0.531250
v 0.812500 0.750000 0.437500
v 0.843750 1.000000 0.468750
v 0.937500 0.750000 0.562500
v 0.906250 1.000000 0.531250
v 0.937500 0.750000 0.437500
v 0.906250 1.000000 0.468750
v 0.812500 0.937500 0.562500
v 0.812500 0.937500 0.437500
v 0.937500 0.937500 0.437500
v 0.937500 0.937500 0.562500
v 0.781250 1.000000 0.406250
v 0.968750 1.000000 0.406250
v 0.781250 0.937500 0.406250
v 0.968750 0.937500 0.406250
v 0.781250 0.937500 0.593750
v 0.781250 1.000000 0.593750
v 0.968750 1.000000 0.593750
v 0.968750 0.937500 0.593750
v 0.875000 0.625000 0.500000
v 0.187500 0.750000 0.562500
v 0.156250 1.000000 0.531250
v 0.187500 0.750000 0.437500
v 0.156250 1.000000 0.468750
v 0.062500 0.750000 0.562500
v 0.093750 1.000000 0.531250
v 0.062500 0.750000 0.437500
v 0.093750 1.000000 0.468750
v 0.187500 0.937500 0.562500
v 0.187500 0.937500 0.437500
v 0.062500 0.937500 0.437500
v 0.062500 0.937500 0.562500
v 0.218750 1.000000 0.406250
v 0.031250 1.000000 0.406250
v 0.218750 0.937500 0.406250
v 0.031250 0.937500 0.406250
v 0.218750 0.937500 0.593750
v 0.218750 1.000000 0.593750
v 0.031250 1.000000 0.593750
v 0.031250 0.937500 0.593750
v 0.125000 0.625000 0.500000
vt 0.656250 0.968750
vt 0.531250 0.968750
vt 0.500000 1.000000
vt 0.687500 1.000000
vt 0.625000 0.875000
vt 0.562500 0.875000
vt 0.500000 0.812500
vt 0.687500 0.812500
vt 0.937500 1.000000
vt 0.875000 1.000000
vt 0.875000 0.937500
vt 0.937500 0.937500
vt 0.187500 0.125000
vt 0.000000 0.125000
vt 0.000000 0.000000
vt 0.187500 0.000000
vt 0.187500 0.250000
vt 0.000000 0.250000
vt 0.187500 0.125000
vt 0.000000 0.125000
vt 0.000000 0.000000
vt 0.187500 0.000000
vt 0.187500 0.250000
vt 0.000000 0.250000
vt 0.687500 0.687500
vt 0.687500 0.750000
vt 0.500000 0.750000
vt 0.500000 0.687500
vt 0.562500 0.937500
vt 0.625000 0.937500
vt 0.687500 1.000000
vt 0.500000 1.000000
vt 0.687500 0.687500
vt 0.687500 0.750000
vt 0.500000 0.750000
vt 0.500000 0.687500
vt 0.531250 0.843750
vt 0.656250 0.843750
vt 0.687500 0.812500
vt 0.500000 0.812500
vt 0.687500 0.750000
vt 0.687500 0.812500
vt 0.500000 0.812500
vt 0.500000 0.750000
vt 0.687500 0.750000
vt 0.687500 0.812500
vt 0.500000 0.812500
vt 0.500000 0.750000
vt 0.375000 0.062500
vt 0.375000 0.187500
vt 0.656250 0.968750
vt 0.687500 1.000000
vt 0.500000 1.000000
vt 0.531250 0.968750
vt 0.625000 0.875000
vt 0.687500 0.812500
vt 0.500000 0.812500
vt 0.562500 0.875000
vt 0.937500 0.937500
vt 0.937500 0.875000
vt 0.875000 0.875000
vt 0.875000 0.937500
vt 0.187500 0.125000
vt 0.187500 0.000000
vt 0.000000 0.000000
vt 0.000000 0.125000
vt 0.187500 0.250000
vt 0.000000 0.250000
vt 0.187500 0.125000
vt 0.187500 0.000000
vt 0.000000 0.000000
vt 0.000000 0.125000
vt 0.187500 0.250000
vt 0.000000 0.250000
vt 0.687500 0.687500
vt 0.500000 0.687500
vt 0.500000 0.750000
vt 0.687500 0.750000
vt 0.562500 0.937500
vt 0.500000 1.000000
vt 0.687500 1.000000
vt 0.625000 0.937500
vt 0.687500 0.687500
vt 0.500000 0.687500
vt 0.500000 0.750000
vt 0.687500 0.750000
vt 0.531250 0.843750
vt 0.500000 0.812500
vt 0.687500 0.812500
vt 0.656250 0.843750
vt 0.687500 0.750000
vt 0.500000 0.750000
vt 0.500000 0.812500
vt 0.687500 0.812500
vt 0.687500 0.750000
vt 0.500000 0.750000
vt 0.500000 0.812500
vt 0.687500 0.812500
vt 0.375000 0.062500
vt 0.375000 0.187500
vn 0.0000 -1.0000 0.0000
vn 0.0000 1.0000 0.0000
vn 0.0000 0.0000 1.0000
vn 1.0000 0.0000 0.0000
vn 0.0000 0.0000 -1.0000
vn -1.0000 0.0000 0.0000
vn 0.0000 -0.4472 -0.8944
vn 0.8944 -0.4472 0.0000
vn 0.0000 -0.4472 0.8944
vn -0.8944 -0.4472 0.0000
usemtl MAIN
s off
f 11/1/1 10/2/1 15/3/1 16/4/1
f 6/5/2 2/6/2 18/7/2 19/8/2
f 8/9/2 4/10/2 2/11/2 6/12/2
f 5/13/3 12/14/3 9/15/3 1/16/3
f 7/17/4 11/18/4 12/14/4 5/13/4
f 3/19/5 10/20/5 11/21/5 7/22/5
f 1/23/6 9/24/6 10/20/6 3/19/6
f 15/25/5 13/26/5 14/27/5 16/28/5
f 4/29/2 8/30/2 14/31/2 13/32/2
f 20/33/3 19/34/3 18/35/3 17/36/3
f 9/37/1 12/38/1 20/39/1 17/40/1
f 17/41/6 18/42/6 13/43/6 15/44/6
f 10/2/1 9/37/1 17/40/1 15/3/1
f 2/6/2 4/29/2 13/32/2 18/7/2
f 16/45/4 14/46/4 19/47/4 20/48/4
f 8/30/2 6/5/2 19/8/2 14/31/2
f 12/38/1 11/1/1 16/4/1 20/39/1
f 3/19/7 7/22/7 21/49/7
f 7/17/8 5/13/8 21/50/8
f 5/13/9 1/16/9 21/49/9
f 1/23/10 3/19/10 21/50/10
f 32/51/1 37/52/1 36/53/1 31/54/1
f 27/55/2 40/56/2 39/57/2 23/58/2
f 29/59/2 27/60/2 23/61/2 25/62/2
f 26/63/3 22/64/3 30/65/3 33/66/3
f 28/67/6 26/63/6 33/66/6 32/68/6
f 24/69/5 28/70/5 32/71/5 31/72/5
f 22/73/4 24/69/4 31/72/4 30/74/4
f 36/75/5 37/76/5 35/77/5 34/78/5
f 25/79/2 34/80/2 35/81/2 29/82/2
f 41/83/3 38/84/3 39/85/3 40/86/3
f 30/87/1 38/88/1 41/89/1 33/90/1
f 38/91/4 36/92/4 34/93/4 39/94/4
f 31/54/1 36/53/1 38/88/1 30/87/1
f 23/58/2 39/57/2 34/80/2 25/79/2
f 37/95/6 41/96/6 40/97/6 35/98/6
f 29/82/2 35/81/2 40/56/2 27/55/2
f 33/90/1 41/89/1 37/52/1 32/51/1
f 24/69/7 42/99/7 28/70/7
f 28/67/10 42/100/10 26/63/10
f 26/63/9 42/99/9 22/64/9
f 22/73/8 42/100/8 24/69/8
