# Blender v2.80 (sub 75) OBJ File: 'manaweaving_station.blend'
# www.blender.org
mtllib manaweaving_altar_pedestal03.mtl
o SHAPE_PEDISTAL_HIGH_Cube.018
v 0.676777 0.812500 0.765165
v 0.720971 1.062500 0.765165
v 0.765165 0.812500 0.676777
v 0.765165 1.062500 0.720971
v 0.765165 0.812500 0.853553
v 0.765165 1.062500 0.809359
v 0.853553 0.812500 0.765165
v 0.809359 1.062500 0.765165
v 0.676777 1.000000 0.765165
v 0.765165 1.000000 0.676777
v 0.853553 1.000000 0.765165
v 0.765165 1.000000 0.853553
v 0.765165 1.062500 0.632583
v 0.897748 1.062500 0.765165
v 0.765165 1.000000 0.632583
v 0.897748 1.000000 0.765165
v 0.632583 1.000000 0.765165
v 0.632583 1.062500 0.765165
v 0.765165 1.062500 0.897748
v 0.765165 1.000000 0.897748
v 0.765165 0.687500 0.765165
v 0.323223 0.812500 0.765165
v 0.279029 1.062500 0.765165
v 0.234835 0.812500 0.676777
v 0.234835 1.062500 0.720971
v 0.234835 0.812500 0.853553
v 0.234835 1.062500 0.809359
v 0.146447 0.812500 0.765165
v 0.190641 1.062500 0.765165
v 0.323223 1.000000 0.765165
v 0.234835 1.000000 0.676777
v 0.146447 1.000000 0.765165
v 0.234835 1.000000 0.853553
v 0.234835 1.062500 0.632583
v 0.102252 1.062500 0.765165
v 0.234835 1.000000 0.632583
v 0.102252 1.000000 0.765165
v 0.367417 1.000000 0.765165
v 0.367417 1.062500 0.765165
v 0.234835 1.062500 0.897748
v 0.234835 1.000000 0.897748
v 0.234835 0.687500 0.765165
vt 0.656250 0.968750
vt 0.531250 0.968750
vt 0.500000 1.000000
vt 0.687500 1.000000
vt 0.625000 0.875000
vt 0.562500 0.875000
vt 0.500000 0.812500
vt 0.687500 0.812500
vt 0.875000 1.000000
vt 0.812500 1.000000
vt 0.812500 0.937500
vt 0.875000 0.937500
vt 0.937500 0.250000
vt 0.750000 0.250000
vt 0.750000 0.125000
vt 0.937500 0.125000
vt 0.937500 0.125000
vt 0.750000 0.125000
vt 0.750000 0.000000
vt 0.937500 0.000000
vt 0.937500 0.250000
vt 0.750000 0.250000
vt 0.750000 0.000000
vt 0.937500 0.000000
vt 0.687500 0.687500
vt 0.687500 0.750000
vt 0.500000 0.750000
vt 0.500000 0.687500
vt 0.562500 0.937500
vt 0.625000 0.937500
vt 0.687500 1.000000
vt 0.500000 1.000000
vt 0.687500 0.687500
vt 0.687500 0.750000
vt 0.500000 0.750000
vt 0.500000 0.687500
vt 0.531250 0.843750
vt 0.656250 0.843750
vt 0.687500 0.812500
vt 0.500000 0.812500
vt 0.687500 0.750000
vt 0.687500 0.812500
vt 0.500000 0.812500
vt 0.500000 0.750000
vt 0.687500 0.750000
vt 0.687500 0.812500
vt 0.500000 0.812500
vt 0.500000 0.750000
vt 0.812500 0.812500
vt 0.812500 0.687500
vt 1.000000 0.750000
vt 0.812500 0.562500
vt 1.000000 0.625000
vt 0.812500 0.812500
vt 0.812500 0.687500
vt 0.812500 0.562500
vt 0.656250 0.968750
vt 0.687500 1.000000
vt 0.500000 1.000000
vt 0.531250 0.968750
vt 0.625000 0.875000
vt 0.687500 0.812500
vt 0.500000 0.812500
vt 0.562500 0.875000
vt 0.875000 0.937500
vt 0.875000 0.875000
vt 0.812500 0.875000
vt 0.812500 0.937500
vt 0.937500 0.250000
vt 0.937500 0.125000
vt 0.750000 0.125000
vt 0.750000 0.250000
vt 0.937500 0.125000
vt 0.937500 0.000000
vt 0.750000 0.000000
vt 0.750000 0.125000
vt 0.937500 0.250000
vt 0.750000 0.250000
vt 0.937500 0.000000
vt 0.750000 0.000000
vt 0.687500 0.687500
vt 0.500000 0.687500
vt 0.500000 0.750000
vt 0.687500 0.750000
vt 0.562500 0.937500
vt 0.500000 1.000000
vt 0.687500 1.000000
vt 0.625000 0.937500
vt 0.687500 0.687500
vt 0.500000 0.687500
vt 0.500000 0.750000
vt 0.687500 0.750000
vt 0.531250 0.843750
vt 0.500000 0.812500
vt 0.687500 0.812500
vt 0.656250 0.843750
vt 0.687500 0.750000
vt 0.500000 0.750000
vt 0.500000 0.812500
vt 0.687500 0.812500
vt 0.687500 0.750000
vt 0.500000 0.750000
vt 0.500000 0.812500
vt 0.687500 0.812500
vt 0.812500 0.812500
vt 1.000000 0.750000
vt 0.812500 0.687500
vt 1.000000 0.625000
vt 0.812500 0.562500
vt 0.812500 0.812500
vt 0.812500 0.687500
vt 0.812500 0.562500
vn 0.0000 -1.0000 0.0000
vn 0.0000 1.0000 0.0000
vn -0.7071 0.0000 0.7071
vn 0.7071 0.0000 0.7071
vn 0.7071 0.0000 -0.7071
vn -0.7071 0.0000 -0.7071
vn 0.6325 -0.4472 -0.6325
vn 0.6325 -0.4472 0.6325
vn -0.6325 -0.4472 0.6325
vn -0.6325 -0.4472 -0.6325
usemtl MAIN
s off
f 11/1/1 10/2/1 15/3/1 16/4/1
f 6/5/2 2/6/2 18/7/2 19/8/2
f 8/9/2 4/10/2 2/11/2 6/12/2
f 5/13/3 12/14/3 9/15/3 1/16/3
f 7/17/4 11/18/4 12/19/4 5/20/4
f 3/21/5 10/22/5 11/18/5 7/17/5
f 1/16/6 9/15/6 10/23/6 3/24/6
f 15/25/5 13/26/5 14/27/5 16/28/5
f 4/29/2 8/30/2 14/31/2 13/32/2
f 20/33/3 19/34/3 18/35/3 17/36/3
f 9/37/1 12/38/1 20/39/1 17/40/1
f 17/41/6 18/42/6 13/43/6 15/44/6
f 10/2/1 9/37/1 17/40/1 15/3/1
f 2/6/2 4/29/2 13/32/2 18/7/2
f 16/45/4 14/46/4 19/47/4 20/48/4
f 8/30/2 6/5/2 19/8/2 14/31/2
f 12/38/1 11/1/1 16/4/1 20/39/1
f 3/49/7 7/50/7 21/51/7
f 7/50/8 5/52/8 21/53/8
f 5/54/9 1/55/9 21/51/9
f 1/55/10 3/56/10 21/53/10
f 32/57/1 37/58/1 36/59/1 31/60/1
f 27/61/2 40/62/2 39/63/2 23/64/2
f 29/65/2 27/66/2 23/67/2 25/68/2
f 26/69/4 22/70/4 30/71/4 33/72/4
f 28/73/3 26/74/3 33/75/3 32/76/3
f 24/77/6 28/73/6 32/76/6 31/78/6
f 22/70/5 24/79/5 31/80/5 30/71/5
f 36/81/6 37/82/6 35/83/6 34/84/6
f 25/85/2 34/86/2 35/87/2 29/88/2
f 41/89/4 38/90/4 39/91/4 40/92/4
f 30/93/1 38/94/1 41/95/1 33/96/1
f 38/97/5 36/98/5 34/99/5 39/100/5
f 31/60/1 36/59/1 38/94/1 30/93/1
f 23/64/2 39/63/2 34/86/2 25/85/2
f 37/101/3 41/102/3 40/103/3 35/104/3
f 29/88/2 35/87/2 40/62/2 27/61/2
f 33/96/1 41/95/1 37/58/1 32/57/1
f 24/105/10 42/106/10 28/107/10
f 28/107/9 42/108/9 26/109/9
f 26/110/8 42/106/8 22/111/8
f 22/111/7 42/108/7 24/112/7
