# Blender v2.80 (sub 75) OBJ File: 'manaweaving_station.blend'
# www.blender.org
mtllib manaweaving_altar.mtl
o MAIN_BODY_Cylinder
v 0.375628 0.812250 0.199739
v 0.375628 0.874750 0.199739
v 0.624372 0.812250 0.199739
v 0.624372 0.874750 0.199739
v 0.800261 0.812250 0.375628
v 0.800261 0.874750 0.375628
v 0.800261 0.812250 0.624372
v 0.800261 0.874750 0.624372
v 0.624372 0.812250 0.800261
v 0.624372 0.874750 0.800261
v 0.375628 0.812250 0.800261
v 0.375628 0.874750 0.800261
v 0.199739 0.812250 0.624372
v 0.199739 0.874750 0.624372
v 0.199739 0.812250 0.375628
v 0.199739 0.874750 0.375628
v 0.399546 0.812250 0.257482
v 0.600454 0.812250 0.257482
v 0.600454 0.874750 0.257482
v 0.399546 0.874750 0.257482
v 0.742518 0.812250 0.399546
v 0.742518 0.874750 0.399546
v 0.742518 0.812250 0.600454
v 0.742518 0.874750 0.600454
v 0.600454 0.812250 0.742518
v 0.600454 0.874750 0.742518
v 0.399546 0.812250 0.742518
v 0.399546 0.874750 0.742518
v 0.257482 0.812250 0.600454
v 0.257482 0.874750 0.600454
v 0.257482 0.812250 0.399546
v 0.257482 0.874750 0.399546
v 0.447381 0.687250 0.372967
v 0.552619 0.687250 0.372967
v 0.552619 0.749750 0.372967
v 0.447381 0.749750 0.372967
v 0.627033 0.687250 0.447381
v 0.627033 0.749750 0.447381
v 0.627033 0.687250 0.552619
v 0.627033 0.749750 0.552619
v 0.552619 0.687250 0.627033
v 0.552619 0.749750 0.627033
v 0.447381 0.687250 0.627033
v 0.447381 0.749750 0.627033
v 0.372967 0.687250 0.552619
v 0.372967 0.749750 0.552619
v 0.372967 0.687250 0.447381
v 0.372967 0.749750 0.447381
v 0.471299 0.687250 0.430709
v 0.528701 0.687250 0.430709
v 0.430709 0.124750 0.528701
v 0.569291 0.687250 0.471299
v 0.471299 0.124750 0.569291
v 0.569291 0.687250 0.528701
v 0.528701 0.124750 0.569291
v 0.528701 0.687250 0.569291
v 0.569291 0.124750 0.528701
v 0.471299 0.687250 0.569291
v 0.569291 0.124750 0.471299
v 0.430709 0.687250 0.528701
v 0.528701 0.124750 0.430709
v 0.430709 0.687250 0.471299
v 0.471299 0.124750 0.430709
v 0.430709 0.124750 0.471299
v 0.372967 0.124750 0.447381
v 0.447381 0.124750 0.372967
v 0.372967 0.124750 0.552619
v 0.447381 0.124750 0.627033
v 0.552619 0.124750 0.627033
v 0.627033 0.124750 0.552619
v 0.627033 0.124750 0.447381
v 0.552619 0.124750 0.372967
v 0.372967 0.062250 0.447381
v 0.447381 0.062250 0.372967
v 0.372967 0.062250 0.552619
v 0.447381 0.062250 0.627033
v 0.552619 0.062250 0.627033
v 0.627033 0.062250 0.552619
v 0.627033 0.062250 0.447381
v 0.552619 0.062250 0.372967
v 0.500000 -0.000250 0.500000
v 0.399546 0.062250 0.742518
v 0.399546 -0.000250 0.742518
v 0.257482 0.062250 0.600454
v 0.257482 -0.000250 0.600454
v 0.257482 0.062250 0.399546
v 0.399546 0.062250 0.257482
v 0.600454 0.062250 0.742518
v 0.742518 0.062250 0.600454
v 0.742518 0.062250 0.399546
v 0.600454 0.062250 0.257482
v 0.257482 -0.000250 0.399546
v 0.600454 -0.000250 0.257482
v 0.399546 -0.000250 0.257482
v 0.600454 -0.000250 0.742518
v 0.742518 -0.000250 0.600454
v 0.742518 -0.000250 0.399546
v 0.552619 0.749750 0.372967
v 0.447381 0.749750 0.372967
v 0.627033 0.749750 0.447381
v 0.627033 0.749750 0.552619
v 0.552619 0.749750 0.627033
v 0.447381 0.749750 0.627033
v 0.372967 0.749750 0.552619
v 0.372967 0.749750 0.447381
v 0.500000 0.749750 0.500000
vt 0.250000 0.562500
vt 0.250000 0.625000
vt 0.000000 0.625000
vt 0.000000 0.562500
vt 0.500000 0.562500
vt 0.500000 0.625000
vt 0.250000 0.625000
vt 0.250000 0.562500
vt 0.000000 0.625000
vt 0.000000 0.562500
vt 0.500000 0.562500
vt 0.500000 0.625000
vt 0.250000 0.625000
vt 0.250000 0.562500
vt 0.000000 0.625000
vt 0.000000 0.562500
vt 0.500000 0.562500
vt 0.500000 0.625000
vt 0.250000 0.625000
vt 0.250000 0.562500
vt 0.274039 0.500000
vt 0.321891 0.312500
vt 0.428109 0.312500
vt 0.475964 0.500002
vt 0.000000 0.625000
vt 0.000000 0.562500
vt 0.500000 0.562500
vt 0.500000 0.625000
vt 0.225962 0.687500
vt 0.178109 0.875000
vt 0.071892 0.875000
vt 0.024038 0.687500
vt 0.475962 0.687500
vt 0.428109 0.875000
vt 0.321892 0.875000
vt 0.274038 0.687500
vt 0.225962 0.687500
vt 0.178109 0.875000
vt 0.071892 0.875000
vt 0.024038 0.687500
vt 0.024039 0.500000
vt 0.071891 0.312500
vt 0.178109 0.312500
vt 0.225964 0.500002
vt 0.274039 0.500000
vt 0.321891 0.312500
vt 0.428109 0.312500
vt 0.475964 0.500002
vt 0.024039 0.500000
vt 0.071891 0.312500
vt 0.178109 0.312500
vt 0.225964 0.500002
vt 0.225962 0.687500
vt 0.178109 0.875000
vt 0.071892 0.875000
vt 0.024038 0.687500
vt 0.475962 0.687500
vt 0.274039 0.687501
vt 0.274044 0.500019
vt 0.475997 0.499986
vt 0.475962 0.687500
vt 0.274038 0.687501
vt 0.274045 0.500021
vt 0.475993 0.499987
vt 0.024044 0.500019
vt 0.225994 0.499987
vt 0.475962 0.687500
vt 0.274038 0.687501
vt 0.225962 0.687500
vt 0.024038 0.687501
vt 0.024044 0.500019
vt 0.225997 0.499986
vt 0.428109 0.875000
vt 0.321892 0.875000
vt 0.321891 0.312500
vt 0.428109 0.312500
vt 0.428109 0.875000
vt 0.321892 0.875000
vt 0.321891 0.312500
vt 0.428109 0.312500
vt 0.071891 0.312500
vt 0.178109 0.312500
vt 0.428109 0.875000
vt 0.321892 0.875000
vt 0.178109 0.875000
vt 0.071891 0.875000
vt 0.071891 0.312500
vt 0.178109 0.312500
vt 0.750000 1.000000
vt 0.750000 0.437500
vt 0.812500 0.437500
vt 0.812500 1.000000
vt 0.750000 0.437500
vt 0.750000 1.000000
vt 0.687500 1.000000
vt 0.687500 0.437500
vt 0.812500 0.437500
vt 0.812500 1.000000
vt 0.750000 1.000000
vt 0.750000 0.437500
vt 0.750000 1.000000
vt 0.750000 0.437500
vt 0.812500 0.437500
vt 0.812500 1.000000
vt 0.687500 1.000000
vt 0.687500 0.437500
vt 0.687500 1.000000
vt 0.687500 0.437500
vt 0.750000 0.437500
vt 0.750000 1.000000
vt 0.812500 0.437500
vt 0.812500 1.000000
vt 0.687500 1.000000
vt 0.687500 0.437500
vt 0.750000 0.437500
vt 0.750000 1.000000
vt 0.428109 0.312500
vt 0.403588 0.250056
vt 0.346454 0.250016
vt 0.321892 0.312500
vt 0.428113 0.312501
vt 0.403585 0.250049
vt 0.346454 0.250016
vt 0.321892 0.312500
vt 0.031250 0.961677
vt 0.018306 0.930427
vt 0.044194 0.930427
vt 0.596454 0.562517
vt 0.571892 0.500000
vt 0.678109 0.500000
vt 0.653588 0.562555
vt 0.596454 0.562516
vt 0.571892 0.500000
vt 0.678109 0.500000
vt 0.653588 0.562555
vt 0.018306 0.930427
vt 0.846454 0.562517
vt 0.821892 0.500000
vt 0.928109 0.500000
vt 0.903588 0.562555
vt 0.596454 0.562517
vt 0.571892 0.500000
vt 0.678109 0.500000
vt 0.653588 0.562555
vt 0.812500 0.500000
vt 0.812500 0.437500
vt 0.937500 0.437500
vt 0.937500 0.500000
vt 0.562500 0.500000
vt 0.562500 0.437500
vt 0.687500 0.437500
vt 0.687500 0.500000
vt 0.812500 0.500000
vt 0.812500 0.437500
vt 0.937500 0.437500
vt 0.937500 0.500000
vt 0.562500 0.500000
vt 0.562500 0.437500
vt 0.687500 0.437500
vt 0.687500 0.500000
vt 0.812500 0.500000
vt 0.812500 0.437500
vt 0.937500 0.437500
vt 0.937500 0.500000
vt 0.562500 0.500000
vt 0.562500 0.437500
vt 0.687500 0.437500
vt 0.687500 0.500000
vt 0.812500 0.500000
vt 0.812500 0.437500
vt 0.937500 0.437500
vt 0.937500 0.500000
vt 0.562500 0.500000
vt 0.562500 0.437500
vt 0.687500 0.437500
vt 0.687500 0.500000
vt 0.822948 0.437500
vt 0.774448 0.312500
vt 0.975552 0.312500
vt 0.927052 0.437500
vt 0.846454 0.562517
vt 0.821892 0.500000
vt 0.928109 0.500000
vt 0.903588 0.562555
vt 0.846454 0.562517
vt 0.821892 0.500000
vt 0.928109 0.500000
vt 0.903588 0.562555
vt 0.572948 0.437500
vt 0.524448 0.312500
vt 0.725552 0.312500
vt 0.677052 0.437500
vt 0.846454 0.562517
vt 0.821892 0.500000
vt 0.928109 0.500000
vt 0.903588 0.562555
vt 0.044194 0.930427
vt 0.596454 0.562517
vt 0.571892 0.500000
vt 0.678109 0.500000
vt 0.653588 0.562555
vt 0.774448 0.312500
vt 0.774448 0.250000
vt 0.975552 0.250000
vt 0.975552 0.312500
vt 0.524448 0.312500
vt 0.524448 0.250000
vt 0.725552 0.250000
vt 0.725552 0.312500
vt 0.774448 0.312500
vt 0.774448 0.250000
vt 0.975552 0.250000
vt 0.975552 0.312500
vt 0.524448 0.312500
vt 0.524448 0.250000
vt 0.725552 0.250000
vt 0.725552 0.312500
vt 0.774448 0.312500
vt 0.774448 0.250000
vt 0.975552 0.250000
vt 0.975552 0.312500
vt 0.524448 0.250000
vt 0.725552 0.250000
vt 0.774448 0.250000
vt 0.975552 0.250000
vt 0.524448 0.312500
vt 0.524448 0.250000
vt 0.725552 0.250000
vt 0.725552 0.312500
vt 0.018306 0.930427
vt 0.822948 0.437500
vt 0.927052 0.437500
vt 0.572948 0.437500
vt 0.677052 0.437500
vt 0.572948 0.437500
vt 0.677052 0.437500
vt 0.044194 0.930427
vt 0.822948 0.437500
vt 0.927052 0.437500
vt 0.018306 0.930427
vt 0.572948 0.437500
vt 0.677052 0.437500
vt 0.044194 0.930427
vt 0.822948 0.437500
vt 0.927052 0.437500
vt 0.178112 0.312501
vt 0.153586 0.250049
vt 0.096454 0.250016
vt 0.071892 0.312500
vt 0.178109 0.875000
vt 0.125000 1.000000
vt 0.071892 0.875000
vt 0.178109 0.312500
vt 0.153546 0.250000
vt 0.096454 0.250000
vt 0.071891 0.312500
vt 0.178109 0.874999
vt 0.071891 0.875000
vt 0.428109 0.874999
vt 0.375000 1.000000
vt 0.321891 0.875000
vt 0.178109 0.312500
vt 0.153588 0.250055
vt 0.096454 0.250016
vt 0.071892 0.312500
vt 0.428113 0.312501
vt 0.403583 0.250049
vt 0.346454 0.250013
vt 0.321891 0.312500
vt 0.428109 0.874999
vt 0.321891 0.875000
vt 0.178112 0.312501
vt 0.153583 0.250049
vt 0.096454 0.250013
vt 0.071892 0.312500
vt 0.178109 0.875000
vt 0.071892 0.875000
vt 0.428109 0.874999
vt 0.321891 0.875000
vt 0.178109 0.874999
vt 0.071891 0.875000
vt 0.428113 0.312501
vt 0.403583 0.250049
vt 0.346454 0.250016
vt 0.321891 0.312500
vt 0.428109 0.874999
vt 0.321891 0.875000
vn 0.0000 0.0000 -1.0000
vn 0.7071 0.0000 -0.7071
vn 1.0000 0.0000 0.0000
vn 0.7071 0.0000 0.7071
vn -0.0000 0.0000 1.0000
vn -0.7071 0.0000 0.7071
vn -0.5194 -0.6786 0.5194
vn -1.0000 0.0000 0.0000
vn -0.7071 0.0000 -0.7071
vn 0.0000 0.6786 0.7345
vn 0.5194 0.6786 0.5194
vn -0.7345 0.6786 0.0000
vn 0.0000 -0.6786 -0.7345
vn -0.5194 -0.6786 -0.5194
vn 0.7345 -0.6786 0.0000
vn 0.0000 0.6786 -0.7345
vn 0.0000 -1.0000 0.0000
vn 0.0000 1.0000 0.0000
vn 0.5194 0.6786 -0.5194
vn 0.5194 -0.6786 0.5194
vn -0.5194 0.6786 -0.5194
vn 0.5194 -0.6786 -0.5194
vn -0.7345 -0.6786 0.0000
vn -0.5194 0.6786 0.5194
vn 0.7345 0.6786 0.0000
vn -0.0000 -0.6786 0.7345
usemtl MAIN
s off
f 1/1/1 2/2/1 4/3/1 3/4/1
f 3/5/2 4/6/2 6/7/2 5/8/2
f 5/8/3 6/7/3 8/9/3 7/10/3
f 7/11/4 8/12/4 10/13/4 9/14/4
f 9/14/5 10/13/5 12/15/5 11/16/5
f 11/17/6 12/18/6 14/19/6 13/20/6
f 29/21/7 45/22/7 43/23/7 27/24/7
f 13/20/8 14/19/8 16/25/8 15/26/8
f 15/27/9 16/28/9 2/2/9 1/1/9
f 20/29/10 36/30/10 35/31/10 19/32/10
f 32/33/11 48/34/11 36/35/11 20/36/11
f 22/37/12 38/38/12 40/39/12 24/40/12
f 18/41/13 34/42/13 33/43/13 17/44/13
f 17/45/14 33/46/14 47/47/14 31/48/14
f 23/49/15 39/50/15 37/51/15 21/52/15
f 26/53/16 42/54/16 44/55/16 28/56/16
f 3/4/17 18/41/17 17/44/17 1/1/17
f 6/7/18 22/37/18 24/40/18 8/9/18
f 16/28/18 32/33/18 20/36/18 2/2/18
f 2/2/18 20/29/18 19/32/18 4/3/18
f 13/20/17 29/21/17 27/24/17 11/17/17
f 12/18/18 28/57/18 30/58/18 14/19/18
f 9/14/17 25/59/17 23/60/17 7/11/17
f 8/12/18 24/61/18 26/62/18 10/13/18
f 5/8/17 21/63/17 18/64/17 3/5/17
f 15/26/17 31/65/17 29/66/17 13/20/17
f 4/6/18 19/67/18 22/68/18 6/7/18
f 14/19/18 30/69/18 32/70/18 16/25/18
f 11/16/17 27/71/17 25/72/17 9/14/17
f 10/13/18 26/53/18 28/56/18 12/15/18
f 7/10/17 23/49/17 21/52/17 5/8/17
f 1/1/17 17/45/17 31/48/17 15/27/17
f 28/57/19 44/73/19 46/74/19 30/58/19
f 25/59/20 41/75/20 39/76/20 23/60/20
f 24/61/21 40/77/21 42/78/21 26/62/21
f 21/63/22 37/79/22 34/80/22 18/64/22
f 31/65/23 47/81/23 45/82/23 29/66/23
f 19/67/24 35/83/24 38/84/24 22/68/24
f 30/69/25 46/85/25 48/86/25 32/70/25
f 27/71/26 43/87/26 41/88/26 25/72/26
f 52/89/2 59/90/2 61/91/2 50/92/2
f 62/93/8 64/94/8 51/95/8 60/96/8
f 56/97/4 55/98/4 57/99/4 54/100/4
f 60/101/6 51/102/6 53/103/6 58/104/6
f 54/100/3 57/99/3 59/105/3 52/106/3
f 50/107/1 61/108/1 63/109/1 49/110/1
f 49/111/9 63/112/9 64/94/9 62/93/9
f 58/113/5 53/114/5 55/115/5 56/116/5
f 33/117/17 49/118/17 62/119/17 47/120/17
f 41/121/17 56/122/17 54/123/17 39/124/17
f 81/125/17 97/126/17 96/127/17
f 57/128/18 70/129/18 71/130/18 59/131/18
f 64/132/18 65/133/18 67/134/18 51/135/18
f 81/125/17 96/127/17 95/136/17
f 55/137/18 69/138/18 70/139/18 57/140/18
f 61/141/18 72/142/18 66/143/18 63/144/18
f 69/145/4 77/146/4 78/147/4 70/148/4
f 72/149/1 80/150/1 74/151/1 66/152/1
f 67/153/6 75/154/6 76/155/6 68/156/6
f 70/157/3 78/158/3 79/159/3 71/160/3
f 66/161/9 74/162/9 73/163/9 65/164/9
f 68/165/5 76/166/5 77/167/5 69/168/5
f 71/169/2 79/170/2 80/171/2 72/172/2
f 65/173/8 73/174/8 75/175/8 67/176/8
f 75/177/18 84/178/18 82/179/18 76/180/18
f 51/181/18 67/182/18 68/183/18 53/184/18
f 59/185/18 71/186/18 72/187/18 61/188/18
f 73/189/18 86/190/18 84/191/18 75/192/18
f 63/193/18 66/194/18 65/195/18 64/196/18
f 81/125/17 95/136/17 83/197/17
f 53/198/18 68/199/18 69/200/18 55/201/18
f 90/202/2 97/203/2 93/204/2 91/205/2
f 89/206/3 96/207/3 97/208/3 90/209/3
f 88/210/4 95/211/4 96/212/4 89/213/4
f 91/214/1 93/215/1 94/216/1 87/217/1
f 87/218/9 94/219/9 92/220/9 86/221/9
f 86/190/8 92/222/8 85/223/8 84/191/8
f 84/178/6 85/224/6 83/225/6 82/179/6
f 82/226/5 83/227/5 95/228/5 88/229/5
f 81/125/17 83/197/17 85/230/17
f 74/231/18 87/218/18 86/221/18 73/232/18
f 80/233/18 91/214/18 87/217/18 74/234/18
f 76/235/18 82/226/18 88/229/18 77/236/18
f 81/125/17 93/237/17 97/126/17
f 77/238/18 88/210/18 89/213/18 78/239/18
f 81/125/17 94/240/17 93/237/17
f 78/241/18 89/206/18 90/209/18 79/242/18
f 81/125/17 92/243/17 94/240/17
f 79/244/18 90/202/18 91/205/18 80/245/18
f 81/125/17 85/230/17 92/243/17
f 39/246/17 54/247/17 52/248/17 37/249/17
f 102/250/18 106/251/18 103/252/18
f 43/253/17 58/254/17 56/255/17 41/256/17
f 104/257/18 106/251/18 105/258/18
f 98/259/18 106/260/18 100/261/18
f 47/262/17 62/263/17 60/264/17 45/265/17
f 37/266/17 52/267/17 50/268/17 34/269/17
f 101/270/18 106/260/18 102/271/18
f 34/272/17 50/273/17 49/274/17 33/275/17
f 100/276/18 106/251/18 101/277/18
f 105/278/18 106/260/18 99/279/18
f 99/280/18 106/251/18 98/281/18
f 45/282/17 60/283/17 58/284/17 43/285/17
f 103/286/18 106/260/18 104/287/18
o WATER_Plane.001
v 0.500000 0.812498 0.500000
v 0.600823 0.812498 0.308370
v 0.399177 0.812498 0.308370
v 0.600823 0.812498 0.691630
v 0.399177 0.812498 0.691630
v 0.691630 0.812498 0.600823
v 0.691630 0.812498 0.399177
v 0.308370 0.812498 0.600823
v 0.308370 0.812498 0.399177
vt 0.691630 0.600823
vt 0.600823 0.691631
vt 0.500000 0.500000
vt 0.691630 0.399177
vt 0.600823 0.308370
vt 0.399177 0.308370
vt 0.308370 0.399177
vt 0.308370 0.600823
vt 0.399177 0.691630
vn 0.0000 1.0000 -0.0000
usemtl WATER
s off
f 113/288/27 108/289/27 107/290/27
f 112/291/27 113/288/27 107/290/27
f 110/292/27 112/291/27 107/290/27
f 111/293/27 110/292/27 107/290/27
f 114/294/27 111/293/27 107/290/27
f 115/295/27 114/294/27 107/290/27
f 109/296/27 115/295/27 107/290/27
f 108/289/27 109/296/27 107/290/27
