# Blender v2.80 (sub 75) OBJ File: 'runeforge.blend'
# www.blender.org
mtllib runeforge.mtl
o Pillar_Cube
v 0.885792 0.342378 0.020993
v 0.885792 0.000000 0.020993
v 0.885792 0.342378 0.979007
v 0.885792 0.000000 0.979007
v 0.114208 0.342378 0.020993
v 0.114208 0.000000 0.020993
v 0.114208 0.342378 0.979007
v 0.114208 0.000000 0.979007
v 0.859122 0.512768 0.951379
v 0.136459 0.512768 0.951379
v 0.859122 0.512768 0.048621
v 0.136459 0.512768 0.048621
v 0.859122 0.538349 0.314673
v 0.859122 0.538349 0.678489
v 0.420098 0.524793 0.312150
v 0.420098 0.524793 0.675966
v 0.740006 0.535496 0.390694
v 0.740006 0.535496 0.601406
v 0.540923 0.527645 0.389233
v 0.540923 0.527645 0.599945
v 0.727473 0.720855 0.390694
v 0.727473 0.720855 0.601406
v 0.528389 0.713004 0.389233
v 0.528389 0.713004 0.599945
v 0.817053 0.990459 0.338964
v 0.817053 0.990459 0.649582
v 0.221810 0.990459 0.100602
v 0.803562 0.990459 0.100602
v 0.803562 0.990459 0.891442
v 0.194229 0.990459 0.865742
v 0.378029 0.990459 0.336441
v 0.378029 0.990459 0.647059
v 0.748001 1.592131 0.817232
v 0.251999 1.592131 0.817722
v 0.748001 1.592131 0.169168
v 0.264103 1.592131 0.169168
v 0.734493 1.724468 0.733164
v 0.251999 1.724468 0.733164
v 0.702211 1.979419 0.217258
v 0.331020 1.988025 0.217254
v 0.777700 1.399649 0.363254
v 0.774985 1.264638 0.620675
v 0.335960 1.386093 0.360732
v 0.335960 1.251082 0.618152
v 0.719237 1.777865 0.191728
vt 0.296875 0.546875
vt 0.578125 0.812500
vt 0.296875 0.812500
vt 0.097656 0.152344
vt 0.035156 0.265625
vt 0.015625 0.144531
vt 0.277344 0.144531
vt 0.171875 0.781250
vt 0.195312 0.863281
vt 0.171875 0.886719
vt 0.000000 0.835938
vt 0.105469 0.734375
vt 0.101562 0.851562
vt 0.156250 0.789062
vt 0.125000 0.839844
vt 0.125000 0.785156
vt 0.281250 0.886719
vt 0.257812 0.863281
vt 0.257812 0.804688
vt 0.281250 0.781250
vt 0.195312 0.804688
vt 0.359375 0.890625
vt 0.296875 0.828125
vt 0.359375 0.828125
vt 0.890625 0.531250
vt 0.921875 0.593750
vt 0.890625 0.593750
vt 0.125000 0.722656
vt 0.156250 0.773438
vt 0.125000 0.777344
vt 0.953125 0.453125
vt 0.890625 0.515625
vt 0.890625 0.453125
vt 0.887630 0.232856
vt 0.991073 0.107115
vt 1.000000 0.232856
vt 0.281250 0.660156
vt 0.183594 0.558594
vt 0.281250 0.546875
vt 0.203125 0.152344
vt 0.261719 0.265625
vt 0.195312 0.265625
vt 0.781250 0.261719
vt 0.679688 0.261719
vt 0.664062 0.144531
vt 0.285156 0.101562
vt 0.007812 0.101562
vt 0.800781 0.144531
vt 0.804688 0.023438
vt 0.660156 0.101562
vt 0.660156 0.023438
vt 0.550781 0.265625
vt 0.328125 0.265625
vt 0.312500 0.144531
vt 0.671875 0.628906
vt 0.671875 0.546875
vt 0.816406 0.546875
vt 0.812500 0.671875
vt 0.675781 0.671875
vt 0.816406 0.628906
vt 0.582031 0.015625
vt 0.304688 0.101562
vt 0.304688 0.015625
vt 0.578125 0.546875
vt 0.800781 0.785156
vt 0.687500 0.785156
vt 0.007812 0.015625
vt 0.105469 0.265625
vt 0.285156 0.015625
vt 0.804688 0.101562
vt 0.003906 0.722656
vt 0.156250 0.843750
vt 0.296875 0.890625
vt 0.921875 0.531250
vt 0.156250 0.718750
vt 0.953125 0.515625
vt 0.895134 0.107115
vt 0.183594 0.671875
vt 0.574219 0.144531
vt 0.582031 0.101562
vt 0.187500 0.371094
vt 0.281250 0.757812
vt 0.054688 0.417969
vt 0.242188 0.417969
vt 0.982128 0.035907
vt 0.894531 0.449219
vt 0.980469 0.347656
vt 0.980469 0.449219
vt 0.003906 0.906250
vt 0.105469 0.917969
vt 0.695312 0.933594
vt 0.792969 0.933594
vt 0.683594 0.414062
vt 0.511719 0.453125
vt 0.359375 0.519531
vt 0.347656 0.417969
vt 0.535156 0.417969
vt 0.777344 0.414062
vt 0.792969 0.964844
vt 0.695312 0.964844
vt 0.236690 0.465617
vt 0.082031 0.453125
vt 0.183594 0.769531
vt 0.113281 0.335938
vt 0.902632 0.000000
vt 0.894531 0.347656
vt 0.007812 0.546875
vt 0.164062 0.679688
vt 0.007812 0.707031
vt 0.777344 0.503906
vt 0.683594 0.503906
vt 0.683594 0.453125
vt 0.230469 0.519531
vt 0.164062 0.566406
vn 0.0823 -0.7199 -0.6892
vn 0.0912 -0.7199 -0.6880
vn 0.1055 -0.7199 -0.6860
vn 0.9279 0.3669 -0.0657
vn 0.9278 0.3677 -0.0630
vn 0.9276 0.3692 -0.0575
vn 0.9360 0.3045 -0.1767
vn 0.9360 0.3049 -0.1760
vn 0.9360 0.3059 -0.1742
vn -0.1797 0.7091 0.6818
vn -0.2239 0.7080 0.6697
vn -0.1254 0.7104 0.6926
vn -0.3099 0.5866 -0.7482
vn -0.3006 0.5912 -0.7484
vn -0.3144 0.5844 -0.7481
vn 0.3422 -0.6188 0.7071
vn 0.3506 -0.6141 0.7071
vn 0.3191 -0.6312 0.7069
vn -0.2825 0.7181 0.6361
vn -0.1483 0.7242 0.6734
vn -0.1984 0.7220 0.6628
vn -0.1923 0.7087 0.6788
vn -0.0276 0.7127 0.7010
vn -0.0343 0.7125 0.7008
vn -0.2126 0.7219 0.6585
vn -0.1603 0.7243 0.6706
vn -0.2601 0.7197 0.6437
vn -0.1396 0.7082 0.6921
vn -0.1388 0.7082 0.6922
vn -0.1415 0.7081 0.6918
vn -0.9308 -0.3488 0.1096
vn -0.9307 -0.3492 0.1088
vn -0.9309 -0.3474 0.1133
vn -0.3506 0.6141 -0.7071
vn -0.3422 0.6188 -0.7071
vn -0.3191 0.6312 -0.7069
vn 0.9311 0.3440 -0.1215
vn 0.9310 0.3445 -0.1202
vn 0.9309 0.3474 -0.1133
vn 0.9282 0.3583 -0.1002
vn 0.9281 0.3593 -0.0977
vn 0.9279 0.3615 -0.0911
vn 0.3148 -0.6748 0.6674
vn 0.3223 -0.6711 0.6677
vn 0.3273 -0.6685 0.6678
vn 0.9048 0.4089 -0.1191
vn 0.9047 0.4085 -0.1208
vn 0.9046 0.4077 -0.1245
vn -0.3154 0.7137 -0.6254
vn -0.3402 0.7010 -0.6268
vn -0.2977 0.7221 -0.6245
vn 0.9163 0.3992 -0.0335
vn 0.9162 0.3994 -0.0323
vn 0.9162 0.3998 -0.0285
vn -0.3243 0.7093 -0.6259
vn -0.2680 0.7348 -0.6231
vn -0.3763 0.6802 -0.6291
vn -0.3783 0.5987 -0.7060
vn -0.3793 0.5981 -0.7060
vn -0.3359 0.6235 -0.7060
vn -0.9368 -0.1467 0.3175
vn -0.9377 -0.1525 0.3121
vn -0.9367 -0.1456 0.3185
vn 0.3114 -0.6361 0.7060
vn 0.3358 -0.6235 0.7060
vn 0.3144 -0.6346 0.7060
vn 0.3451 -0.4830 0.8047
vn 0.3367 -0.4876 0.8055
vn 0.3294 -0.4916 0.8061
vn 0.2812 -0.6500 0.7060
vn 0.3032 -0.6400 0.7060
vn 0.3359 -0.6235 0.7060
vn -0.9360 -0.3064 0.1735
vn -0.9360 -0.3066 0.1730
vn -0.9360 -0.3049 0.1761
vn 0.0652 -0.7199 -0.6910
vn 0.0399 -0.7199 -0.6929
vn 0.3310 -0.4604 0.8237
vn 0.2875 -0.4844 0.8263
vn 0.3353 -0.4578 0.8234
vn 0.9360 0.3066 -0.1730
vn 0.9360 0.3064 -0.1735
vn 0.9360 0.3049 -0.1761
vn 0.9194 0.3876 -0.0669
vn 0.9195 0.3855 -0.0765
vn 0.9195 0.3866 -0.0716
vn 0.9458 0.3208 -0.0499
vn 0.9458 0.3210 -0.0496
vn 0.9460 0.3202 -0.0514
vn 0.3189 -0.4970 0.8070
vn 0.2995 -0.5065 0.8085
vn 0.2844 -0.5134 0.8097
vn 0.9360 0.3085 -0.1696
vn 0.9360 0.3070 -0.1723
vn -0.3419 0.6202 -0.7060
vn -0.3468 0.6175 -0.7060
vn -0.3551 0.7276 -0.5869
vn -0.3767 0.7150 -0.5890
vn -0.3613 0.7241 -0.5875
vn 0.9360 0.3039 -0.1778
vn 0.9360 0.3041 -0.1775
vn 0.9360 0.3048 -0.1762
vn -0.2629 0.7071 0.6564
vn -0.2649 0.7071 0.6557
vn -0.1943 0.7087 0.6782
vn -0.2738 0.6018 -0.7502
vn -0.3047 0.5876 -0.7496
vn -0.2702 0.6034 -0.7503
vn 0.3366 -0.6220 0.7070
vn 0.3244 -0.6285 0.7069
vn 0.3178 -0.6319 0.7069
vn -0.1526 0.7008 0.6969
vn 0.0022 0.7054 0.7088
vn -0.0686 0.7033 0.7076
vn -0.2272 0.7079 0.6688
vn -0.1370 0.7101 0.6907
vn -0.1782 0.7091 0.6822
vn -0.1410 0.7016 0.6985
vn -0.0933 0.7030 0.7050
vn -0.0568 0.7041 0.7078
vn -0.1338 0.7084 0.6930
vn -0.1414 0.7081 0.6918
vn -0.1369 0.7083 0.6925
vn -0.9307 -0.3495 0.1079
vn -0.9306 -0.3510 0.1036
vn -0.3178 0.6319 -0.7069
vn -0.3244 0.6285 -0.7069
vn -0.3366 0.6220 -0.7070
vn 0.9309 0.3471 -0.1141
vn 0.9309 0.3465 -0.1156
vn 0.9280 0.3606 -0.0939
vn 0.9280 0.3610 -0.0927
vn 0.9280 0.3604 -0.0945
vn 0.2862 -0.6870 0.6679
vn 0.3214 -0.6702 0.6690
vn 0.2890 -0.6858 0.6680
vn 0.3012 -0.5375 0.7876
vn 0.3340 -0.5209 0.7855
vn 0.3086 -0.5340 0.7872
vn -0.9328 -0.2259 0.2809
vn -0.9324 -0.2223 0.2851
vn -0.9327 -0.2252 0.2816
vn -0.9360 -0.3070 0.1723
vn -0.9360 -0.3049 0.1760
vn -0.9360 -0.3085 0.1696
vn 0.9163 0.3991 -0.0341
vn 0.9162 0.3994 -0.0320
vn -0.9311 -0.2133 0.2958
vn -0.9313 -0.2145 0.2944
vn -0.9314 -0.2152 0.2936
vn -0.3665 0.7211 -0.5880
vn -0.3240 0.7441 -0.5843
vn -0.3731 0.7172 -0.5886
vn -0.9315 -0.2163 0.2924
vn -0.9318 -0.2184 0.2900
vn -0.9319 -0.2193 0.2888
vn 0.9039 0.4083 -0.1274
vn 0.9041 0.4097 -0.1215
vn 0.9038 0.4077 -0.1298
vn 0.3131 -0.6797 0.6633
vn 0.3239 -0.6742 0.6637
vn 0.3275 -0.6723 0.6639
vn 0.9167 0.3980 -0.0348
vn 0.9166 0.3987 -0.0297
vn 0.9166 0.3986 -0.0307
vn 0.9153 0.4014 -0.0338
vn 0.9152 0.4018 -0.0310
vn 0.9151 0.4024 -0.0250
vn -0.0298 -0.3360 -0.9414
vn -0.0421 -0.3368 -0.9406
vn -0.0232 -0.3356 -0.9417
vn -0.2976 0.5521 -0.7788
vn -0.2774 0.5614 -0.7797
vn -0.2970 0.5524 -0.7789
vn 0.2331 -0.5673 0.7898
vn 0.2634 -0.5560 0.7884
vn 0.3020 -0.5391 0.7862
vn -0.4130 0.6596 -0.6280
vn -0.3991 0.6691 -0.6269
vn -0.3320 0.7088 -0.6224
vn -0.9474 -0.1373 0.2892
vn -0.9482 -0.1439 0.2833
vn -0.9468 -0.1324 0.2934
vn -0.9420 -0.3036 0.1431
vn -0.9423 -0.2975 0.1537
vn -0.9421 -0.3004 0.1488
vn 0.2411 -0.5921 0.7689
vn 0.2917 -0.5687 0.7691
vn 0.2531 -0.5870 0.7690
vn -0.3691 0.6881 -0.6247
vn -0.3528 0.6975 -0.6237
vn -0.3636 0.6914 -0.6244
vn 0.2480 -0.1289 0.9602
vn 0.2491 -0.1285 0.9599
vn 0.2164 -0.1386 0.9664
vn 0.9115 0.4093 -0.0395
vn 0.9115 0.4093 -0.0394
vn 0.9115 0.4091 -0.0418
vn 0.2887 -0.6928 0.6608
vn 0.3207 -0.6775 0.6619
vn 0.2902 -0.6921 0.6609
vn 0.9052 0.4101 -0.1118
vn 0.9048 0.4077 -0.1232
vn 0.9050 0.4094 -0.1154
vn 0.9467 0.3053 -0.1029
vn 0.9460 0.3101 -0.0941
vn 0.9463 0.3080 -0.0979
vn 0.9445 0.3250 -0.0474
vn 0.9440 0.3272 -0.0424
vn 0.9438 0.3279 -0.0404
vn -0.0790 -0.3395 -0.9373
vn -0.0226 -0.3352 -0.9419
vn -0.0605 -0.3379 -0.9392
vn -0.2644 0.5713 -0.7770
vn -0.2909 0.5597 -0.7759
vn -0.2690 0.5694 -0.7768
vn 0.9227 0.3734 -0.0962
vn 0.9228 0.3702 -0.1065
vn 0.9228 0.3706 -0.1054
vn 0.0254 0.3554 0.9344
vn 0.0447 0.3558 0.9335
vn 0.0553 0.3562 0.9328
vn -0.9487 -0.2315 0.2155
vn -0.9488 -0.2350 0.2113
vn -0.9485 -0.2273 0.2205
vn -0.3167 0.7246 -0.6121
vn -0.3375 0.7139 -0.6135
vn -0.3068 0.7294 -0.6115
vn 0.9335 0.3583 0.0137
vn 0.9340 0.3572 0.0082
vn 0.9337 0.3579 0.0116
vn 0.2272 -0.1381 0.9640
vn 0.2113 -0.1427 0.9669
vn 0.2038 -0.1448 0.9683
vn 0.9210 0.3753 -0.1048
vn 0.9209 0.3765 -0.1006
vn 0.9210 0.3736 -0.1104
vn 0.9262 0.3682 -0.0810
vn 0.9260 0.3705 -0.0726
vn 0.9263 0.3672 -0.0845
vn 0.0159 0.3734 0.9275
vn 0.0522 0.3732 0.9263
vn -0.0041 0.3739 0.9275
vn -0.9418 -0.2330 0.2424
vn -0.9415 -0.2291 0.2471
vn -0.9421 -0.2367 0.2377
vn -0.3218 0.7190 -0.6160
vn -0.3866 0.6823 -0.6204
vn -0.3787 0.6873 -0.6198
vn -0.3837 0.6842 -0.6202
vn -0.3290 0.7154 -0.6164
vn -0.2904 0.7338 -0.6142
usemtl runeforge
s off
f 2/1/1 8/2/2 6/3/3
f 14/4/4 29/5/5 9/6/6
f 11/7/7 14/4/8 9/6/9
f 16/8/10 19/9/11 15/10/12
f 26/11/13 16/12/14 32/13/15
f 20/14/16 22/15/17 24/16/18
f 13/17/19 19/9/20 17/18/21
f 13/17/22 18/19/23 14/20/24
f 16/8/25 18/19/26 20/21/27
f 21/22/28 24/23/29 22/24/30
f 20/25/31 23/26/32 19/27/33
f 19/28/34 21/29/35 17/30/36
f 17/31/37 22/32/38 18/33/39
f 15/34/40 32/35/41 16/36/42
f 25/37/43 15/38/44 13/39/45
f 13/40/46 28/41/47 25/42/48
f 27/43/49 28/44/50 11/45/51
f 1/46/52 9/6/53 3/47/54
f 27/43/55 11/45/56 12/48/57
f 6/49/58 1/50/59 2/51/60
f 30/52/61 27/53/62 12/54/63
f 7/55/64 8/56/65 4/57/66
f 7/55/67 9/58/68 10/59/69
f 7/55/70 4/57/71 3/60/72
f 8/61/73 5/62/74 6/63/75
f 2/1/76 4/64/3 8/2/77
f 29/65/78 30/66/79 10/59/80
f 4/67/81 1/46/82 3/47/83
f 13/40/84 11/7/85 28/41/86
f 14/4/87 26/68/88 29/5/89
f 7/55/90 3/60/91 9/58/92
f 4/67/93 2/69/8 1/46/94
f 6/49/95 5/70/60 1/50/96
f 11/45/97 5/70/98 12/48/99
f 11/7/100 13/40/101 14/4/102
f 16/8/103 20/21/104 19/9/105
f 26/11/106 14/71/107 16/12/108
f 20/14/109 18/72/110 22/15/111
f 13/17/112 15/10/113 19/9/114
f 13/17/115 17/18/116 18/19/117
f 16/8/118 14/20/119 18/19/120
f 21/22/121 23/73/122 24/23/123
f 20/25/124 24/74/33 23/26/125
f 19/28/126 23/75/127 21/29/128
f 17/31/129 21/76/39 22/32/130
f 15/34/131 31/77/132 32/35/133
f 25/37/134 31/78/135 15/38/136
f 29/65/137 10/59/138 9/58/139
f 30/52/140 12/54/141 10/79/142
f 8/61/143 7/80/144 5/62/145
f 1/46/146 11/7/53 9/6/147
f 5/62/148 10/79/149 12/54/150
f 11/45/151 1/50/152 5/70/153
f 5/62/154 7/80/155 10/79/156
f 41/81/157 25/42/158 28/41/159
f 41/82/160 31/78/161 25/37/162
f 33/83/163 41/81/164 35/84/165
f 31/77/166 44/85/167 32/35/168
f 42/86/169 43/87/170 41/88/171
f 42/89/172 32/13/173 44/90/174
f 34/91/175 29/65/176 33/92/177
f 27/43/178 35/93/179 28/44/180
f 38/94/181 40/95/182 36/96/183
f 38/94/184 36/96/185 34/97/186
f 34/91/187 30/66/188 29/65/189
f 27/43/190 36/98/191 35/93/192
f 34/91/193 37/99/194 38/100/195
f 45/101/196 37/102/197 35/84/198
f 41/82/199 43/103/200 31/78/201
f 41/81/202 28/41/203 35/84/204
f 33/83/205 42/104/206 41/81/207
f 31/77/208 43/105/209 44/85/210
f 42/86/211 44/106/212 43/87/213
f 42/89/214 26/11/215 32/13/216
f 29/5/217 42/104/218 33/83/219
f 37/107/220 40/108/221 38/109/222
f 30/52/223 36/96/224 27/53/225
f 40/110/226 39/111/227 45/112/228
f 29/5/229 26/68/230 42/104/231
f 34/91/232 33/92/233 37/99/234
f 39/113/235 37/102/236 45/101/237
f 37/102/238 33/83/239 35/84/240
f 37/107/241 39/114/242 40/108/243
f 30/52/244 34/97/245 36/96/246
f 35/93/247 36/98/248 45/112/249
f 36/98/250 40/110/251 45/112/252
