# Blender v2.80 (sub 75) OBJ File: 'rune caster.blend'
# www.blender.org
mtllib runic_anvil.mtl
o Anvil_Cube.003
v 0.358417 0.742166 0.575188
v 0.358417 0.783995 0.575188
v 0.358417 0.742166 0.424812
v 0.358417 0.783995 0.424812
v 0.662840 0.742166 0.575188
v 0.662840 0.783995 0.575188
v 0.662840 0.742166 0.424812
v 0.662840 0.783995 0.424812
v 0.316092 0.697967 0.403905
v 0.316092 0.697967 0.596095
v 0.705165 0.697967 0.403905
v 0.705165 0.697967 0.596095
v 0.316092 0.650162 0.403905
v 0.316092 0.650162 0.596095
v 0.705165 0.650162 0.403905
v 0.705165 0.650162 0.596095
v 0.377680 0.800919 0.565673
v 0.377680 0.800919 0.434327
v 0.643577 0.800919 0.434327
v 0.643577 0.800919 0.565673
v 0.377680 0.812824 0.565673
v 0.377680 0.812824 0.434327
v 0.643577 0.812824 0.434327
v 0.643577 0.812824 0.565673
v 0.403680 0.831768 0.552829
v 0.403680 0.831768 0.447171
v 0.617577 0.831768 0.447171
v 0.617577 0.831768 0.552829
v 0.403680 0.843373 0.552829
v 0.403680 0.843373 0.447171
v 0.617577 0.843373 0.447171
v 0.617577 0.843373 0.552829
v 0.315850 0.898369 0.596215
v 0.315850 0.898369 0.403785
v 0.705407 0.898369 0.403785
v 0.705407 0.898369 0.596215
v 0.315850 0.980501 0.596215
v 0.315850 0.980501 0.403785
v 0.705407 0.980501 0.403785
v 0.705407 0.980501 0.596215
v 0.058058 0.960777 0.522176
v 0.058058 0.960777 0.477824
v 0.058058 0.979706 0.522176
v 0.058058 0.979706 0.477824
v 0.705407 0.909709 0.430354
v 0.705407 0.909709 0.569646
v 0.705407 0.969161 0.430354
v 0.705407 0.969161 0.569646
v 0.721219 0.909709 0.462170
v 0.721219 0.909709 0.537830
v 0.721219 0.969161 0.462170
v 0.721219 0.969161 0.537830
v 0.894129 0.932316 0.490940
v 0.894129 0.932316 0.509060
v 0.894129 0.946554 0.490940
v 0.894129 0.946554 0.509060
vt 0.556756 0.926232
vt 0.437582 0.926232
vt 0.437582 0.516253
vt 0.556756 0.516253
vt 0.344936 0.192764
vt 0.446519 0.191852
vt 0.454495 0.903144
vt 0.352912 0.904057
vt 0.352034 0.971805
vt 0.248216 0.971805
vt 0.248216 0.614653
vt 0.352034 0.614653
vt 0.187500 0.312500
vt 0.375000 0.312500
vt 0.375000 1.000000
vt 0.187500 1.000000
vt 0.403217 0.353666
vt 0.403217 0.824878
vt 0.285414 0.942681
vt 0.285414 0.235863
vt 0.502830 0.167951
vt 0.502830 0.986802
vt 0.396324 0.934988
vt 0.396324 0.219764
vt 0.047954 0.252556
vt 0.052165 0.628056
vt 0.004211 0.628487
vt 0.000000 0.252987
vt 0.395042 0.208259
vt 0.402680 0.889342
vt 0.295852 0.985606
vt 0.286091 0.115135
vt 0.485790 0.899546
vt 0.485790 0.542940
vt 0.595325 0.493359
vt 0.595325 0.949126
vt 0.281807 0.922453
vt 0.281807 0.490383
vt 0.414521 0.430311
vt 0.414521 0.982525
vt 0.865002 0.624514
vt 0.865003 1.000000
vt 0.671140 1.000000
vt 0.671140 0.624514
vt 0.951779 0.810025
vt 0.951779 0.624514
vt 1.000000 0.624514
vt 1.000000 0.810025
vt 0.562849 0.813999
vt 0.562849 0.628487
vt 0.611070 0.628487
vt 0.611070 0.813999
vt 0.515649 0.015773
vt 0.515649 0.390773
vt 0.453149 0.390773
vt 0.453149 0.015773
vt 0.318433 0.971522
vt 0.324987 0.387093
vt 0.352186 0.387338
vt 0.345632 0.971766
vt 0.247412 0.982561
vt 0.256617 0.161705
vt 0.306266 0.214426
vt 0.298225 0.931401
vt 0.298876 0.882973
vt 0.289481 0.045138
vt 0.341346 0.097356
vt 0.349552 0.829161
vt 0.262114 0.969506
vt 0.262114 0.542355
vt 0.320857 0.569383
vt 0.320857 0.942478
vt 0.351837 0.529317
vt 0.351837 0.979114
vt 0.256688 0.935131
vt 0.256687 0.573300
vt 0.385856 0.675797
vt 0.382978 0.419176
vt 0.394921 0.419069
vt 0.397799 0.675690
vt 0.648688 0.795018
vt 0.648688 0.921799
vt 0.636678 0.921799
vt 0.636678 0.795018
vt 0.660697 0.795018
vt 0.660697 0.921799
vt 0.648688 0.921799
vt 0.648688 0.795018
vt 0.936589 0.600253
vt 0.936589 0.498266
vt 0.948296 0.498266
vt 0.948296 0.600253
vt 0.611070 0.921799
vt 0.611070 0.795018
vt 0.636678 0.807415
vt 0.636678 0.909402
vt 0.238607 0.989068
vt 0.247045 0.236582
vt 0.305910 0.311166
vt 0.299121 0.916489
vt 0.459606 0.951874
vt 0.451473 0.226595
vt 0.509799 0.296550
vt 0.516342 0.879987
vt 0.348685 0.778783
vt 0.354480 0.261984
vt 0.483522 0.049570
vt 0.472968 0.990784
vt 0.936589 0.498266
vt 0.936589 0.600253
vt 0.924883 0.600253
vt 0.924883 0.498266
vt 0.523250 0.293180
vt 0.525565 0.086746
vt 0.537207 0.086851
vt 0.534892 0.293285
vt 0.189995 0.541741
vt 0.187680 0.335306
vt 0.199322 0.335202
vt 0.201637 0.541636
vt 0.517115 0.262667
vt 0.517115 0.747217
vt 0.487274 0.680314
vt 0.487274 0.329570
vt 0.311016 0.767047
vt 0.305137 0.242854
vt 0.431198 0.027820
vt 0.441904 0.982500
vt 0.238417 0.446906
vt 0.238417 0.144988
vt 0.497575 0.021015
vt 0.497575 0.570879
vt 0.585335 0.965404
vt 0.335335 0.965404
vt 0.272835 0.652904
vt 0.710335 0.652904
vt 1.000000 -0.000000
vt 1.000000 0.750000
vt 0.750000 0.750000
vt 0.750000 0.000000
vt 0.461811 -0.001550
vt 0.774311 -0.001550
vt 0.649311 0.373450
vt 0.586811 0.373450
vt 0.024803 0.998450
vt 0.026353 0.230905
vt 0.213853 0.230905
vt 0.212303 0.998450
vt 0.000000 1.000000
vt 0.000000 0.187500
vt 0.250000 0.187500
vt 0.250000 1.000000
vt 0.520042 0.672883
vt 0.520042 0.715693
vt 0.500947 0.715693
vt 0.500947 0.672883
vt 0.341618 0.426137
vt 0.208187 0.427335
vt 0.317693 0.021885
vt 0.348446 0.021608
vt 0.732529 0.936442
vt 0.295029 0.936442
vt 0.607529 0.311442
vt 0.732529 0.311442
vt 0.531521 0.224612
vt 0.714777 0.226258
vt 0.724155 0.781843
vt 0.681918 0.781464
vt 0.622619 0.811961
vt 0.291600 0.811961
vt 0.291600 0.642447
vt 0.622619 0.642447
vt 0.300992 0.262667
vt 0.330833 0.329570
vt 0.300992 0.747217
vt 0.330833 0.680314
vt 0.875000 1.000000
vt 0.687500 1.000000
vt 0.750000 0.500000
vt 0.812500 0.500000
vt 0.927677 0.674724
vt 0.535918 0.674724
vt 0.625400 0.632176
vt 0.838195 0.632176
vt 0.362680 0.352138
vt 0.551539 0.352138
vt 0.551539 0.448852
vt 0.362680 0.448852
vt 0.562500 1.000000
vt 0.000000 1.000000
vt 0.125000 0.937500
vt 0.437500 0.937500
vt 0.514099 0.721038
vt 0.514099 0.908538
vt 0.389099 0.908538
vt 0.389099 0.721038
vt 0.437500 0.437500
vt 0.250000 0.437500
vt 0.312500 0.000000
vt 0.375000 0.000000
vt 0.829478 1.001550
vt 0.641978 1.001550
vt 0.704478 0.564050
vt 0.766978 0.564050
vt 0.721424 0.806755
vt 0.514744 0.806755
vt 0.593336 0.355945
vt 0.642832 0.355945
vn -1.0000 0.0000 0.0000
vn 0.0000 0.0000 -1.0000
vn 1.0000 0.0000 0.0000
vn 0.0000 0.0000 1.0000
vn 0.0000 0.4276 0.9040
vn -0.6600 0.7512 0.0000
vn 0.0000 0.4276 -0.9040
vn -0.7223 0.6916 0.0000
vn 0.7223 0.6916 0.0000
vn 0.0000 -1.0000 0.0000
vn 0.0000 0.4901 0.8717
vn 0.0000 0.4901 -0.8717
vn 0.6600 0.7512 0.0000
vn 0.5889 0.8082 0.0000
vn -0.5889 0.8082 0.0000
vn 0.0000 0.5612 0.8277
vn 0.0000 0.5612 -0.8277
vn 0.0000 -0.6194 0.7851
vn 0.0000 -0.6194 -0.7851
vn 0.5307 -0.8476 0.0000
vn -0.5307 -0.8476 0.0000
vn 0.0000 1.0000 0.0000
vn -0.0031 1.0000 0.0000
vn -0.2760 0.0000 -0.9611
vn -0.2353 -0.9719 0.0000
vn -0.2760 0.0000 0.9611
vn 0.8955 0.0000 -0.4451
vn 0.1641 0.0000 0.9864
vn 0.8955 0.0000 0.4451
vn 0.1296 0.9916 0.0000
vn 0.1641 0.0000 -0.9864
vn 0.1296 -0.9916 0.0000
usemtl runic_anvil
s off
f 1/1/1 2/2/1 4/3/1 3/4/1
f 3/5/2 4/6/2 8/7/2 7/8/2
f 7/9/3 8/10/3 6/11/3 5/12/3
f 5/13/4 6/14/4 2/15/4 1/16/4
f 5/17/5 1/18/5 10/19/5 12/20/5
f 4/21/6 2/22/6 17/23/6 18/24/6
f 9/25/2 11/26/2 15/27/2 13/28/2
f 3/29/7 7/30/7 11/31/7 9/32/7
f 1/33/8 3/34/8 9/35/8 10/36/8
f 7/37/9 5/38/9 12/39/9 11/40/9
f 13/41/10 15/42/10 16/43/10 14/44/10
f 11/45/3 12/46/3 16/47/3 15/48/3
f 10/49/1 9/50/1 13/51/1 14/52/1
f 12/53/4 10/54/4 14/55/4 16/56/4
f 17/57/4 20/58/4 24/59/4 21/60/4
f 2/61/11 6/62/11 20/63/11 17/64/11
f 8/65/12 4/66/12 18/67/12 19/68/12
f 6/69/13 8/70/13 19/71/13 20/72/13
f 24/73/14 23/74/14 27/75/14 28/76/14
f 19/77/2 18/78/2 22/79/2 23/80/2
f 20/81/3 19/82/3 23/83/3 24/84/3
f 18/85/1 17/86/1 21/87/1 22/88/1
f 28/89/3 27/90/3 31/91/3 32/92/3
f 22/93/15 21/94/15 25/95/15 26/96/15
f 21/97/16 24/98/16 28/99/16 25/100/16
f 23/101/17 22/102/17 26/103/17 27/104/17
f 29/105/18 32/106/18 36/107/18 33/108/18
f 26/109/1 25/110/1 29/111/1 30/112/1
f 25/113/4 28/114/4 32/115/4 29/116/4
f 27/117/2 26/118/2 30/119/2 31/120/2
f 36/121/3 35/122/3 45/123/3 46/124/3
f 31/125/19 30/126/19 34/127/19 35/128/19
f 32/129/20 31/130/20 35/131/20 36/132/20
f 30/133/21 29/134/21 33/135/21 34/136/21
f 39/137/22 38/138/22 37/139/22 40/140/22
f 37/141/23 38/142/23 44/143/23 43/144/23
f 33/145/4 36/146/4 40/147/4 37/148/4
f 35/149/2 34/150/2 38/151/2 39/152/2
f 42/153/1 41/154/1 43/155/1 44/156/1
f 38/157/24 34/158/24 42/159/24 44/160/24
f 34/161/25 33/162/25 41/163/25 42/164/25
f 33/165/26 37/166/26 43/167/26 41/168/26
f 45/169/27 47/170/27 51/171/27 49/172/27
f 40/173/3 36/121/3 46/124/3 48/174/3
f 35/122/3 39/175/3 47/176/3 45/123/3
f 39/175/3 40/173/3 48/174/3 47/176/3
f 52/177/28 50/178/28 54/179/28 56/180/28
f 46/181/10 45/182/10 49/183/10 50/184/10
f 48/185/29 46/186/29 50/187/29 52/188/29
f 47/189/22 48/190/22 52/191/22 51/192/22
f 54/193/3 53/194/3 55/195/3 56/196/3
f 51/197/30 52/198/30 56/199/30 55/200/30
f 49/201/31 51/202/31 55/203/31 53/204/31
f 50/205/32 49/206/32 53/207/32 54/208/32
