# Blender v2.92.0 OBJ File: ''
# www.blender.org
mtllib table_plain.mtl
o TABLE_TOP_TABLE_TOP
v 0.875000 0.812500 0.062500
v 0.875000 1.000000 0.062500
v 0.937500 1.000000 0.125000
v 0.937500 0.812500 0.125000
v 0.937500 0.812500 0.500000
v 0.500000 0.812500 0.500000
v 0.500000 1.000000 0.500000
v 0.062500 1.000000 0.875000
v 0.125000 1.000000 0.937500
v 0.500000 0.812500 0.937500
v 0.125000 0.812500 0.937500
v 0.062500 0.812500 0.875000
v 0.062500 1.000000 0.500000
v 0.062500 0.812500 0.500000
v 0.875000 0.812500 0.937500
v 0.937500 1.000000 0.500000
v 0.937500 1.000000 0.875000
v 0.937500 0.812500 0.875000
v 0.125000 1.000000 0.062500
v 0.062500 1.000000 0.125000
v 0.062500 0.812500 0.125000
v 0.500000 1.000000 0.062500
v 0.500000 0.812500 0.062500
v 0.125000 0.812500 0.062500
v 0.875000 1.000000 0.937500
v 0.500000 1.000000 0.937500
vt 0.437500 0.812500
vt 0.437500 1.000000
vt 0.375000 1.000000
vt 0.375000 0.812500
vt 1.000000 1.000000
vt 1.000000 0.562500
vt 0.625000 1.000000
vt 1.000000 0.562500
vt 0.625000 1.000000
vt 0.562500 0.937500
vt 0.562500 0.562500
vt 0.562500 0.937500
vt 0.437500 0.812500
vt 0.437500 1.000000
vt 0.375000 1.000000
vt 0.375000 0.812500
vt 0.000000 1.000000
vt 0.000000 0.812500
vt 0.625000 1.000000
vt 1.000000 1.000000
vt 0.000000 1.000000
vt 0.375000 1.000000
vt 0.375000 0.812500
vt 0.000000 0.812500
vt 0.562500 0.937500
vt 0.625000 1.000000
vt 0.562500 0.937500
vt 0.375000 1.000000
vt 0.375000 0.812500
vt 0.625000 1.000000
vt 1.000000 1.000000
vt 0.562500 0.562500
vt 0.562500 0.937500
vt 0.562500 0.562500
vt 1.000000 1.000000
vt 0.625000 1.000000
vt 0.562500 0.937500
vt 1.000000 1.000000
vt 0.625000 1.000000
vt 0.562500 0.562500
vt 0.562500 0.562500
vt 0.562500 0.937500
vt 0.562500 0.562500
vt 0.562500 0.937500
vt 1.000000 1.000000
vt 0.562500 0.562500
vt 0.625000 1.000000
vt 1.000000 1.000000
vt 0.562500 0.562500
vt 1.000000 1.000000
vt 0.437500 0.812500
vt 0.437500 1.000000
vt 0.375000 1.000000
vt 0.375000 0.812500
vt 0.000000 1.000000
vt 0.000000 0.812500
vt 0.375000 1.000000
vt 0.375000 0.812500
vt 0.437500 0.812500
vt 0.437500 1.000000
vt 0.375000 1.000000
vt 0.375000 0.812500
vt 0.000000 1.000000
vt 0.000000 0.812500
vt 0.375000 1.000000
vt 0.375000 0.812500
vn 0.7071 0.0000 -0.7071
vn 0.0000 -1.0000 0.0000
vn 0.0000 1.0000 0.0000
vn -0.7071 -0.0000 0.7071
vn -1.0000 0.0000 0.0000
vn 1.0000 0.0000 0.0000
vn 0.7071 -0.0000 0.7071
vn 0.0000 -0.0000 1.0000
vn -0.7071 0.0000 -0.7071
vn 0.0000 0.0000 -1.0000
usemtl MAIN
s 1
f 1/1/1 2/2/1 3/3/1 4/4/1
f 5/5/2 6/6/2 4/7/2
f 7/8/3 8/9/3 9/10/3
f 10/11/2 11/12/2 6/6/2
f 11/13/4 9/14/4 8/15/4 12/16/4
f 8/15/5 13/17/5 14/18/5 12/16/5
f 6/6/2 15/19/2 10/20/2
f 16/21/6 17/22/6 18/23/6 5/24/6
f 3/3/6 16/21/6 5/24/6 4/4/6
f 18/25/2 15/19/2 6/6/2
f 19/26/3 20/27/3 7/8/3
f 13/17/5 20/28/5 21/29/5 14/18/5
f 3/30/3 7/8/3 16/31/3
f 13/32/3 7/8/3 20/27/3
f 3/30/3 2/33/3 7/8/3
f 22/34/3 7/8/3 2/33/3
f 19/26/3 7/8/3 22/35/3
f 11/12/2 12/36/2 6/6/2
f 6/6/2 1/37/2 4/7/2
f 23/38/2 6/6/2 24/39/2
f 6/6/2 23/40/2 1/37/2
f 6/6/2 14/41/2 21/42/2
f 16/43/3 7/8/3 17/44/3
f 13/45/3 8/9/3 7/8/3
f 5/46/2 18/25/2 6/6/2
f 17/44/3 7/8/3 25/47/3
f 7/8/3 26/48/3 25/47/3
f 7/8/3 9/10/3 26/49/3
f 6/6/2 12/36/2 14/50/2
f 6/6/2 21/42/2 24/39/2
f 18/51/7 17/52/7 25/53/7 15/54/7
f 25/53/8 26/55/8 10/56/8 15/54/8
f 26/55/8 9/57/8 11/58/8 10/56/8
f 21/59/9 20/60/9 19/61/9 24/62/9
f 19/61/10 22/63/10 23/64/10 24/62/10
f 22/63/10 2/65/10 1/66/10 23/64/10
o TABLE_LEGS_TABLE_LEGS
v 0.812500 0.375000 0.375000
v 0.812500 0.500000 0.375000
v 0.812500 0.500000 0.625000
v 0.812500 0.375000 0.625000
v 0.750000 0.375000 0.375000
v 0.750000 0.375000 0.625000
v 0.750000 0.500000 0.375000
v 0.750000 0.500000 0.625000
v 0.187500 0.500000 0.375000
v 0.187500 0.500000 0.625000
v 0.250000 0.500000 0.625000
v 0.250000 0.500000 0.375000
v 0.250000 0.375000 0.625000
v 0.250000 0.375000 0.375000
v 0.187500 0.375000 0.625000
v 0.187500 0.375000 0.375000
v 0.375000 0.000000 0.312500
v 0.375000 0.000000 0.125000
v 0.375000 0.812500 0.125000
v 0.375000 0.812500 0.312500
v 0.187500 0.000000 0.125000
v 0.125000 0.000000 0.187500
v 0.125000 0.812500 0.187500
v 0.187500 0.812500 0.125000
v 0.312500 0.000000 0.375000
v 0.312500 0.812500 0.375000
v 0.125000 0.000000 0.375000
v 0.875000 0.000000 0.375000
v 0.625000 0.000000 0.125000
v 0.812500 0.000000 0.125000
v 0.875000 0.000000 0.187500
v 0.687500 0.000000 0.375000
v 0.687500 0.812500 0.375000
v 0.625000 0.812500 0.312500
v 0.625000 0.000000 0.312500
v 0.625000 0.812500 0.125000
v 0.812500 0.812500 0.125000
v 0.875000 0.812500 0.187500
v 0.875000 0.812500 0.375000
v 0.687500 -0.000000 0.625000
v 0.875000 -0.000000 0.625000
v 0.625000 -0.000000 0.875000
v 0.625000 -0.000000 0.687500
v 0.375000 0.500000 0.187500
v 0.375000 0.500000 0.250000
v 0.625000 0.500000 0.250000
v 0.625000 0.500000 0.187500
v 0.125000 -0.000000 0.625000
v 0.375000 -0.000000 0.875000
v 0.187500 -0.000000 0.875000
v 0.125000 -0.000000 0.812500
v 0.125000 0.812500 0.812500
v 0.125000 0.812500 0.625000
v 0.687500 0.812500 0.625000
v 0.875000 0.812500 0.625000
v 0.375000 0.812500 0.875000
v 0.187500 0.812500 0.875000
v 0.312500 0.812500 0.625000
v 0.312500 -0.000000 0.625000
v 0.375000 -0.000000 0.687500
v 0.375000 0.812500 0.687500
v 0.125000 0.812500 0.375000
v 0.875000 -0.000000 0.812500
v 0.875000 0.812500 0.812500
v 0.812500 -0.000000 0.875000
v 0.812500 0.812500 0.875000
v 0.625000 0.812500 0.875000
v 0.625000 0.812500 0.687500
v 0.375000 0.375000 0.187500
v 0.625000 0.375000 0.187500
v 0.375000 0.375000 0.250000
v 0.625000 0.375000 0.250000
v 0.375000 0.375000 0.750000
v 0.625000 0.375000 0.750000
v 0.625000 0.375000 0.812500
v 0.375000 0.375000 0.812500
v 0.375000 0.500000 0.750000
v 0.625000 0.500000 0.750000
v 0.375000 0.500000 0.812500
v 0.625000 0.500000 0.812500
v 0.250000 0.375000 0.625000
v 0.250000 0.500000 0.625000
v 0.187500 0.500000 0.625000
v 0.187500 0.375000 0.625000
vt 0.437500 0.750000
vt 0.562500 0.750000
vt 0.562500 1.000000
vt 0.437500 1.000000
vt 0.562500 0.500000
vt 0.500000 0.500000
vt 0.500000 0.750000
vt 0.562500 0.750000
vt 0.562500 0.750000
vt 0.437500 0.750000
vt 0.437500 1.000000
vt 0.562500 1.000000
vt 0.500000 0.500000
vt 0.500000 0.750000
vt 0.562500 0.750000
vt 0.562500 0.500000
vt 0.562500 0.750000
vt 0.562500 1.000000
vt 0.437500 1.000000
vt 0.437500 0.750000
vt 0.562500 0.500000
vt 0.562500 0.750000
vt 0.500000 0.750000
vt 0.500000 0.500000
vt 0.437500 0.750000
vt 0.437500 1.000000
vt 0.562500 1.000000
vt 0.562500 0.750000
vt 0.250000 0.000000
vt 0.437500 0.000000
vt 0.437500 0.812500
vt 0.250000 0.812500
vt 0.187500 0.000000
vt 0.250000 0.000000
vt 0.250000 0.812500
vt 0.187500 0.812500
vt 0.187500 0.000000
vt 0.187500 0.812500
vt 0.453125 0.046875
vt 0.453125 0.023438
vt 0.460938 0.015625
vt 0.484375 0.015625
vt 0.484375 0.046875
vt 0.453125 0.015625
vt 0.476562 0.015625
vt 0.484375 0.023438
vt 0.250000 0.000000
vt 0.250000 0.812500
vt 0.187500 0.812500
vt 0.187500 0.000000
vt 0.250000 0.000000
vt 0.250000 0.812500
vt 0.437500 0.812500
vt 0.437500 0.000000
vt 0.250000 0.000000
vt 0.250000 0.812500
vt 0.187500 0.812500
vt 0.187500 0.000000
vt 0.000000 0.812500
vt 0.000000 0.000000
vt 0.460938 0.015625
vt 0.484375 0.015625
vt 0.453125 0.046875
vt 0.453125 0.023437
vt 0.562500 0.500000
vt 0.500000 0.500000
vt 0.500000 0.750000
vt 0.562500 0.750000
vt 0.453125 0.015625
vt 0.484375 0.046875
vt 0.460938 0.046875
vt 0.453125 0.039062
vt 0.187500 0.000000
vt 0.187500 0.812500
vt 0.000000 0.812500
vt 0.000000 0.000000
vt 0.437500 0.000000
vt 0.250000 0.000000
vt 0.250000 0.812500
vt 0.437500 0.812500
vt 0.000000 0.000000
vt 0.000000 0.812500
vt 0.187500 0.812500
vt 0.187500 0.000000
vt 0.437500 0.000000
vt 0.437500 0.812500
vt 0.250000 0.812500
vt 0.250000 0.000000
vt 0.250000 0.000000
vt 0.250000 0.812500
vt 0.437500 0.812500
vt 0.437500 0.000000
vt 0.437500 0.000000
vt 0.250000 0.000000
vt 0.250000 0.812500
vt 0.437500 0.812500
vt 0.000000 0.000000
vt 0.000000 0.812500
vt 0.250000 0.000000
vt 0.250000 0.812500
vt 0.187500 0.000000
vt 0.000000 0.000000
vt 0.000000 0.812500
vt 0.187500 0.812500
vt 0.476562 0.046875
vt 0.484375 0.039062
vt 0.000000 0.000000
vt 0.187500 0.000000
vt 0.187500 0.812500
vt 0.000000 0.812500
vt 0.187500 0.000000
vt 0.000000 0.000000
vt 0.000000 0.812500
vt 0.187500 0.812500
vt 0.476562 0.015625
vt 0.484375 0.023437
vt 0.187500 0.812500
vt 0.187500 0.000000
vt 0.437500 0.000000
vt 0.437500 0.812500
vt 0.000000 0.000000
vt 0.000000 0.812500
vt 0.187500 0.812500
vt 0.187500 0.000000
vt 0.460938 0.046875
vt 0.453125 0.039062
vt 0.250000 0.000000
vt 0.437500 0.000000
vt 0.437500 0.812500
vt 0.250000 0.812500
vt 0.250000 0.000000
vt 0.250000 0.812500
vt 0.187500 0.000000
vt 0.187500 0.812500
vt 0.484375 0.039062
vt 0.476562 0.046875
vt 0.437500 0.750000
vt 0.562500 0.750000
vt 0.562500 1.000000
vt 0.437500 1.000000
vt 0.500000 0.500000
vt 0.562500 0.500000
vt 0.562500 0.750000
vt 0.500000 0.750000
vt 0.562500 0.750000
vt 0.437500 0.750000
vt 0.437500 1.000000
vt 0.562500 1.000000
vt 0.562500 0.500000
vt 0.562500 0.750000
vt 0.500000 0.750000
vt 0.500000 0.500000
vt 0.562500 0.750000
vt 0.562500 1.000000
vt 0.437500 1.000000
vt 0.437500 0.750000
vt 0.500000 0.500000
vt 0.500000 0.750000
vt 0.562500 0.750000
vt 0.562500 0.500000
vt 0.437500 0.750000
vt 0.437500 1.000000
vt 0.562500 1.000000
vt 0.562500 0.750000
vt 0.500000 0.500000
vt 0.562500 0.500000
vt 0.562500 0.750000
vt 0.500000 0.750000
vn 1.0000 0.0000 0.0000
vn 0.0000 -1.0000 -0.0000
vn -1.0000 0.0000 0.0000
vn 0.0000 1.0000 0.0000
vn -0.7071 0.0000 -0.7071
vn 0.7071 -0.0000 0.7071
vn -0.7071 -0.0000 0.7071
vn 0.7071 0.0000 -0.7071
vn 0.0000 0.0000 -1.0000
vn 0.0000 -0.0000 1.0000
usemtl MAIN
s 1
f 27/67/11 28/68/11 29/69/11 30/70/11
f 31/71/12 27/72/12 30/73/12 32/74/12
f 33/75/13 31/76/13 32/77/13 34/78/13
f 35/79/14 36/80/14 37/81/14 38/82/14
f 38/83/11 37/84/11 39/85/11 40/86/11
f 40/87/12 39/88/12 41/89/12 42/90/12
f 42/91/13 41/92/13 36/93/13 35/94/13
f 43/95/11 44/96/11 45/97/11 46/98/11
f 47/99/15 48/100/15 49/101/15 50/102/15
f 51/103/16 43/95/16 46/98/16 52/104/16
f 53/105/12 48/106/12 47/107/12 44/108/12
f 54/109/12 55/110/12 56/111/12 57/112/12
f 58/113/17 59/114/17 60/115/17 61/116/17
f 61/117/13 60/118/13 62/119/13 55/120/13
f 56/121/18 63/122/18 64/123/18 57/124/18
f 57/124/11 64/123/11 65/125/11 54/126/11
f 66/127/12 67/128/12 68/129/12 69/130/12
f 70/131/14 71/132/14 72/133/14 73/134/14
f 74/135/12 75/136/12 76/137/12 77/138/12
f 77/139/13 78/140/13 79/141/13 74/142/13
f 67/143/19 66/144/19 80/145/19 81/146/19
f 75/147/20 82/148/20 83/149/20 76/150/20
f 74/151/19 79/152/19 84/153/19 85/154/19
f 86/155/11 87/156/11 82/157/11 75/158/11
f 53/159/20 51/160/20 52/161/20 88/162/20
f 44/163/19 47/99/19 50/102/19 45/164/19
f 76/165/17 83/166/17 78/140/17 77/139/17
f 89/167/11 67/168/11 81/169/11 90/170/11
f 51/171/12 53/105/12 44/108/12 43/172/12
f 68/173/20 91/174/20 92/175/20 93/176/20
f 48/177/13 53/178/13 88/179/13 49/180/13
f 85/181/12 86/182/12 75/136/12 74/135/12
f 85/154/18 84/153/18 87/183/18 86/184/18
f 54/185/20 65/186/20 59/114/20 58/113/20
f 55/187/19 62/188/19 63/189/19 56/190/19
f 58/191/12 61/192/12 55/110/12 54/109/12
f 69/193/13 68/194/13 93/195/13 94/196/13
f 91/174/16 89/197/16 90/198/16 92/175/16
f 66/199/15 69/193/15 94/196/15 80/200/15
f 67/128/12 89/201/12 91/202/12 68/129/12
f 95/203/19 70/204/19 73/205/19 96/206/19
f 97/207/12 95/208/12 96/209/12 98/210/12
f 71/211/20 97/212/20 98/213/20 72/214/20
f 99/215/12 100/216/12 101/217/12 102/218/12
f 103/219/19 104/220/19 100/221/19 99/222/19
f 105/223/14 106/224/14 104/225/14 103/226/14
f 102/227/20 101/228/20 106/229/20 105/230/20
f 28/231/14 33/232/14 34/233/14 29/234/14
l 110 107
l 107 108
l 109 110
l 108 109
