# Blender v2.83.5 OBJ File: 'lodestar.blend'
# www.blender.org
mtllib lodestar.mtl
o Cube_Cube.003
v 1.000000 0.047032 0.000000
v 1.000000 -0.000000 0.000000
v 1.000000 0.047032 1.000000
v 1.000000 -0.000000 1.000000
v 0.000000 0.047032 0.000000
v 0.000000 -0.000000 0.000000
v 0.000000 0.047032 1.000000
v 0.000000 -0.000000 1.000000
v 0.500000 0.995808 0.500000
v 1.000000 0.046838 0.000000
v 1.000000 0.046838 1.000000
v 0.000000 0.046838 0.000000
v 0.000000 0.046838 1.000000
vt 0.000291 0.890629
vt 0.000169 0.875686
vt 0.124669 0.875649
vt 0.124941 0.891028
vt 0.124669 0.875649
vt 0.124941 0.891028
vt 0.000291 0.890629
vt 0.000305 0.875649
vt 0.127051 0.999627
vt 0.126330 0.875116
vt 0.249948 0.875116
vt 0.249588 0.999627
vt 0.124669 0.875649
vt 0.124941 0.891028
vt 0.000291 0.890629
vt 0.000169 0.875686
vt 0.124669 0.875649
vt 0.124941 0.891028
vt 0.000291 0.890629
vt 0.000169 0.875686
vt 0.988557 0.015129
vt 0.807157 0.595212
vt 0.615357 0.015129
vt 0.012057 0.595212
vt 0.188748 0.015129
vt 0.385258 0.595212
vt 0.415108 0.595212
vt 0.598827 0.015129
vt 0.788423 0.595212
vt 0.582175 0.015129
vt 0.401855 0.595212
vt 0.208975 0.015129
vn 0.0000 0.0000 1.0000
vn -1.0000 0.0000 0.0000
vn 0.0000 -1.0000 0.0000
vn 1.0000 0.0000 0.0000
vn 0.0000 0.0000 -1.0000
vn 0.0000 0.4661 0.8847
vn -0.8847 0.4661 0.0000
vn 0.8847 0.4661 0.0000
vn 0.0000 0.4661 -0.8847
usemtl lodestar
s off
f 4/1/1 3/2/1 7/3/1 8/4/1
f 8/5/2 7/6/2 5/7/2 6/8/2
f 6/9/3 2/10/3 4/11/3 8/12/3
f 2/13/4 1/14/4 3/15/4 4/16/4
f 6/17/5 5/18/5 1/19/5 2/20/5
f 11/21/6 9/22/6 13/23/6
f 13/24/7 9/25/7 12/26/7
f 10/27/8 9/28/8 11/29/8
f 12/30/9 9/31/9 10/32/9
