# Blender v2.92.0 OBJ File: ''
# www.blender.org
mtllib occulus_eyeshell_interior.mtl
o OCCULUS_EYESHELL_INTERIOR
v 0.187500 1.187500 -0.187500
v 0.452665 1.375000 0.000000
v 0.187500 1.562500 -0.187500
v -0.187500 1.562500 -0.187500
v -0.187500 1.187500 -0.187500
v 0.187500 1.562500 0.187500
v -0.187500 1.562500 0.187500
v -0.452665 1.375000 0.000000
v -0.187500 1.187500 0.187500
v 0.187500 1.187500 0.187500
vt 0.625000 0.500000
vt 0.625000 0.500000
vt 0.625000 0.500000
vt 0.625000 0.500000
vt 0.625000 0.500000
vt 0.625000 0.500000
vt 0.625000 0.500000
vt 0.625000 0.500000
vt 0.625000 0.500000
vt 0.625000 0.500000
vn -0.5774 -0.0000 0.8165
vn 0.0000 -0.0000 1.0000
vn -0.5774 -0.8165 0.0000
vn 0.0000 -1.0000 0.0000
vn 0.5774 -0.8165 0.0000
vn 0.5774 -0.0000 0.8165
vn 0.5774 0.8165 0.0000
vn 0.5774 0.0000 -0.8165
vn 0.0000 0.0000 -1.0000
vn -0.5774 0.8165 0.0000
vn -0.5774 0.0000 -0.8165
vn 0.0000 1.0000 0.0000
usemtl STARFIELD
s 1
f 1/1/1 2/2/1 3/3/1
f 3/3/2 4/4/2 5/5/2 1/1/2
f 3/3/3 2/2/3 6/6/3
f 4/4/4 3/3/4 6/6/4 7/7/4
f 8/8/5 4/4/5 7/7/5
f 5/5/6 4/4/6 8/8/6
f 9/9/7 5/5/7 8/8/7
f 7/7/8 9/9/8 8/8/8
f 7/7/9 6/6/9 10/10/9 9/9/9
f 10/10/10 2/2/10 1/1/10
f 6/6/11 2/2/11 10/10/11
f 9/9/12 10/10/12 1/1/12 5/5/12
