# Blender v2.92.0 OBJ File: ''
# www.blender.org
mtllib occulus_eye_shell.mtl
o OCCULUS_EYESHELL
v 0.350603 1.447169 0.000000
v 0.187500 1.562500 0.125000
v 0.187500 1.562500 0.187500
v 0.452665 1.375000 0.000000
v 0.350603 1.302831 0.000000
v 0.187500 1.187500 -0.125000
v 0.187500 1.187500 -0.187500
v 0.350603 1.375000 -0.072169
v 0.187500 1.250000 -0.187500
v 0.350603 1.375000 0.072169
v 0.187500 1.500000 0.187500
v 0.000000 1.187500 0.187500
v 0.000000 1.187500 0.125000
v 0.187500 1.187500 0.125000
v 0.187500 1.187500 0.187500
v 0.187500 1.250000 0.187500
v 0.187500 1.500000 -0.187500
v 0.187500 1.562500 -0.187500
v 0.000000 1.562500 -0.187500
v 0.000000 1.562500 -0.125000
v 0.187500 1.562500 -0.125000
v 0.000000 1.500000 -0.187500
v 0.000000 1.250000 0.187500
v 0.000000 1.562500 0.187500
v 0.000000 1.500000 0.187500
v 0.000000 1.562500 0.125000
v 0.000000 1.187500 -0.187500
v 0.000000 1.250000 -0.187500
v 0.000000 1.187500 -0.125000
v -0.350603 1.447169 0.000000
v -0.452665 1.375000 0.000000
v -0.187500 1.562500 0.187500
v -0.187500 1.562500 0.125000
v -0.350603 1.302831 0.000000
v -0.187500 1.187500 -0.187500
v -0.187500 1.187500 -0.125000
v -0.350603 1.375000 -0.072169
v -0.187500 1.250000 -0.187500
v -0.350603 1.375000 0.072169
v -0.187500 1.500000 0.187500
v -0.187500 1.187500 0.187500
v -0.187500 1.187500 0.125000
v -0.187500 1.250000 0.187500
v -0.187500 1.500000 -0.187500
v -0.187500 1.562500 -0.187500
v -0.187500 1.562500 -0.125000
vt 0.937500 0.469749
vt 0.937500 0.250001
vt 1.000000 0.217729
vt 1.000000 0.562500
vt 0.937500 0.469749
vt 0.937500 0.250001
vt 1.000000 0.217729
vt 0.937500 0.469749
vt 0.937500 0.250001
vt 0.937500 0.469749
vt 0.937500 0.250001
vt 0.937500 0.031250
vt 1.000000 0.031250
vt 1.000000 0.218750
vt 0.937500 0.218750
vt 0.937500 0.250002
vt 1.000000 0.217729
vt 0.937500 0.250002
vt 1.000000 0.217729
vt 0.937500 0.031250
vt 1.000000 0.031250
vt 1.000000 0.218750
vt 0.937500 0.218750
vt 1.000000 0.218750
vt 1.000000 0.031250
vt 1.000000 0.218750
vt 1.000000 0.031250
vt 0.937500 0.250002
vt 0.937500 0.250002
vt 0.937500 0.218750
vt 1.000000 0.218750
vt 1.000000 0.031250
vt 0.937500 0.031250
vt 0.937500 0.218750
vt 0.937500 0.031250
vt 0.937500 0.218750
vt 1.000000 0.218750
vt 1.000000 0.031250
vt 0.937500 0.031250
vt 0.937500 0.218750
vt 0.937500 0.031250
vt 0.937500 0.469749
vt 1.000000 0.562500
vt 1.000000 0.217729
vt 0.937500 0.250001
vt 0.937500 0.469749
vt 1.000000 0.217729
vt 0.937500 0.250001
vt 0.937500 0.469749
vt 0.937500 0.250001
vt 0.937500 0.469749
vt 0.937500 0.250001
vt 0.937500 0.218750
vt 1.000000 0.218750
vt 0.937500 0.250002
vt 1.000000 0.217729
vt 0.937500 0.250002
vt 1.000000 0.217729
vt 0.937500 0.218750
vt 1.000000 0.218750
vt 1.000000 0.218750
vt 1.000000 0.218750
vt 0.937500 0.250002
vt 0.937500 0.250002
vt 0.937500 0.218750
vt 1.000000 0.218750
vt 0.937500 0.218750
vt 0.937500 0.218750
vt 1.000000 0.218750
vt 0.937500 0.218750
vn 0.5774 0.8165 0.0000
vn 0.5774 -0.8165 0.0000
vn 0.5774 0.0000 -0.8165
vn 0.5774 -0.0000 0.8165
vn 0.0000 -1.0000 0.0000
vn 0.0000 1.0000 0.0000
vn 0.0000 0.0000 -1.0000
vn 0.0000 -0.0000 1.0000
vn -0.5774 0.8165 -0.0000
vn -0.5774 -0.8165 0.0000
vn -0.5774 0.0000 -0.8165
vn -0.5774 -0.0000 0.8165
usemtl MAIN
s 1
f 1/1/1 2/2/1 3/3/1 4/4/1
f 5/5/2 6/6/2 7/7/2 4/4/2
f 8/8/3 4/4/3 7/7/3 9/9/3
f 10/10/4 4/4/4 3/3/4 11/11/4
f 12/12/5 13/13/5 14/14/5 15/15/5
f 16/16/4 15/17/4 4/4/4 10/10/4
f 17/18/3 18/19/3 4/4/3 8/8/3
f 19/20/6 20/21/6 21/22/6 18/23/6
f 19/20/7 18/23/7 17/24/7 22/25/7
f 12/12/8 15/15/8 16/26/8 23/27/8
f 21/28/1 1/1/1 4/4/1 18/19/1
f 14/29/2 5/5/2 4/4/2 15/17/2
f 11/30/8 3/31/8 24/32/8 25/33/8
f 2/34/6 26/35/6 24/32/6 3/31/6
f 9/36/7 7/37/7 27/38/7 28/39/7
f 6/40/5 29/41/5 27/38/5 7/37/5
f 30/42/9 31/43/9 32/44/9 33/45/9
f 34/46/10 31/43/10 35/47/10 36/48/10
f 37/49/11 38/50/11 35/47/11 31/43/11
f 39/51/12 40/52/12 32/44/12 31/43/12
f 12/12/5 41/53/5 42/54/5 13/13/5
f 43/55/12 39/51/12 31/43/12 41/56/12
f 44/57/11 37/49/11 31/43/11 45/58/11
f 19/20/6 45/59/6 46/60/6 20/21/6
f 19/20/7 22/25/7 44/61/7 45/59/7
f 12/12/8 23/27/8 43/62/8 41/53/8
f 46/63/9 45/58/9 31/43/9 30/42/9
f 42/64/10 41/56/10 31/43/10 34/46/10
f 40/65/8 25/33/8 24/32/8 32/66/8
f 33/67/6 32/66/6 24/32/6 26/35/6
f 38/68/7 28/39/7 27/38/7 35/69/7
f 36/70/5 35/69/5 27/38/5 29/41/5
