# Blender v2.83.5 OBJ File: 'mana_crystal.blend'
# www.blender.org
mtllib mana_crystal.mtl
o crystal_Plane.001
v 0.504614 0.585838 0.267495
v 0.504778 0.578105 0.270670
v 0.496967 0.578088 0.270696
v 0.497210 0.585837 0.267495
v 0.726352 1.225536 0.373880
v 0.728317 1.217664 0.372758
v 0.724045 1.217811 0.366382
v 0.721843 1.225785 0.367384
v 0.698126 0.578105 0.382301
v 0.701050 0.585838 0.380908
v 0.704752 0.585838 0.387320
v 0.702063 0.578126 0.389057
v 0.704752 0.585838 0.614141
v 0.701038 0.585838 0.620562
v 0.698155 0.578129 0.619117
v 0.702063 0.578126 0.612338
v 0.759838 1.208825 0.640525
v 0.762988 1.208994 0.634148
v 0.761160 1.216905 0.632526
v 0.757986 1.216614 0.639444
v 0.504616 0.585838 0.733967
v 0.497233 0.585838 0.733915
v 0.496981 0.578102 0.730669
v 0.504783 0.578129 0.730761
v 0.248277 1.208814 0.634003
v 0.251980 1.208818 0.640422
v 0.254133 1.216614 0.639444
v 0.250244 1.216614 0.632710
v 0.286245 0.578102 0.605241
v 0.283237 0.585837 0.606574
v 0.279903 0.585841 0.600120
v 0.282638 0.578141 0.598398
v 0.254649 1.216905 0.340092
v 0.252344 1.208997 0.339328
v 0.248396 1.208827 0.345246
v 0.250244 1.216614 0.346300
v 0.501849 1.584648 0.482813
v 0.498283 1.585603 0.489505
v 0.502171 1.585603 0.496240
v 0.509948 1.585603 0.496240
v 0.513960 1.584647 0.489806
v 0.509722 1.584439 0.483161
v 0.299338 0.578141 0.388977
v 0.296732 0.585837 0.387319
v 0.300776 0.585837 0.380907
v 0.303634 0.578088 0.382317
v 0.503708 1.217811 0.239171
v 0.496051 1.217665 0.238659
v 0.496047 1.225536 0.240914
v 0.503928 1.225785 0.241571
v 0.502171 1.216614 0.782649
v 0.502267 1.208816 0.784951
v 0.509678 1.208825 0.784955
v 0.509948 1.216614 0.782649
v 0.494178 0.311686 0.491702
v 0.501989 0.311681 0.491695
v 0.505905 0.311674 0.498463
v 0.501994 0.311673 0.505240
v 0.494184 0.310848 0.504472
v 0.489508 0.312261 0.498148
v 0.713599 0.930732 0.372980
v 0.717301 0.930732 0.379392
v 0.279207 0.930732 0.621287
v 0.275657 0.930732 0.614848
v 0.283393 0.930732 0.379404
v 0.287238 0.930732 0.372979
v 0.496716 0.930732 0.252037
v 0.504120 0.930732 0.252037
v 0.504121 0.930732 0.748632
v 0.496723 0.930732 0.748607
v 0.717301 0.930732 0.621276
v 0.713586 0.930732 0.627697
v 0.502761 0.697183 0.346386
v 0.502869 0.692087 0.348478
v 0.497721 0.692075 0.348495
v 0.497882 0.697183 0.346385
v 0.648901 1.118785 0.416500
v 0.650196 1.113597 0.415761
v 0.647380 1.113694 0.411559
v 0.645929 1.118950 0.412219
v 0.630298 0.692087 0.422050
v 0.632225 0.697183 0.421132
v 0.634665 0.697183 0.425358
v 0.632893 0.692100 0.426503
v 0.634665 0.697183 0.574848
v 0.632217 0.697183 0.579079
v 0.630317 0.692102 0.578127
v 0.632893 0.692100 0.573660
v 0.670970 1.107772 0.592236
v 0.673046 1.107883 0.588033
v 0.671841 1.113097 0.586965
v 0.669750 1.112905 0.591524
v 0.502762 0.697183 0.653820
v 0.497897 0.697183 0.653786
v 0.497731 0.692085 0.651647
v 0.502873 0.692102 0.651708
v 0.333819 1.107764 0.587938
v 0.336259 1.107767 0.592168
v 0.337678 1.112905 0.591524
v 0.335115 1.112905 0.587086
v 0.358842 0.692085 0.568982
v 0.356860 0.697182 0.569860
v 0.354662 0.697185 0.565607
v 0.356465 0.692110 0.564472
v 0.338018 1.113097 0.394232
v 0.336499 1.107885 0.393728
v 0.333897 1.107773 0.397629
v 0.335115 1.112905 0.398323
v 0.500939 1.355463 0.488294
v 0.498589 1.356093 0.492705
v 0.501151 1.356092 0.497143
v 0.506276 1.356092 0.497143
v 0.508921 1.355463 0.492903
v 0.506128 1.355325 0.488524
v 0.367471 0.692110 0.426450
v 0.365754 0.697183 0.425358
v 0.368419 0.697183 0.421131
v 0.370303 0.692075 0.422061
v 0.502164 1.113694 0.327718
v 0.497117 1.113598 0.327381
v 0.497115 1.118785 0.328867
v 0.502309 1.118950 0.329300
v 0.501151 1.112905 0.685905
v 0.501214 1.107765 0.687422
v 0.506099 1.107772 0.687425
v 0.506276 1.112905 0.685905
v 0.495883 0.516500 0.494152
v 0.501031 0.516496 0.494148
v 0.503612 0.516492 0.498608
v 0.501035 0.516491 0.503075
v 0.495887 0.515947 0.502569
v 0.492805 0.516879 0.498400
v 0.640496 0.924490 0.415907
v 0.642936 0.924490 0.420133
v 0.354203 0.924490 0.579558
v 0.351864 0.924490 0.575314
v 0.356963 0.924490 0.420141
v 0.359496 0.924490 0.415907
v 0.497556 0.924490 0.336198
v 0.502435 0.924490 0.336198
v 0.502436 0.924490 0.663486
v 0.497560 0.924490 0.663469
v 0.642936 0.924490 0.579550
v 0.640487 0.924490 0.583782
vt 0.597236 0.528316
vt 0.720916 0.528316
vt 0.720796 0.776071
vt 0.597356 0.776071
vt 0.596367 0.781653
vt 0.717938 0.781653
vt 0.508608 0.976267
vt 0.597487 0.776070
vt 0.597295 0.528316
vt 0.720854 0.528316
vt 0.720661 0.776071
vt 0.591330 0.216204
vt 0.408494 0.216204
vt 0.502530 0.023949
vt 0.596949 0.222724
vt 0.721204 0.222714
vt 0.719139 0.216204
vt 0.596125 0.216204
vt 0.507325 0.023949
vt 0.597087 0.222619
vt 0.721068 0.222669
vt 0.407882 0.776072
vt 0.407851 0.528316
vt 0.591927 0.528316
vt 0.591895 0.776072
vt 0.282946 0.528316
vt 0.282799 0.222667
vt 0.402754 0.222618
vt 0.402609 0.528316
vt 0.407516 0.222723
vt 0.592258 0.222722
vt 0.590907 0.216091
vt 0.408921 0.216091
vt 0.502520 0.026231
vt 0.403692 0.216148
vt 0.285076 0.216148
vt 0.497410 0.026045
vt 0.282660 0.222713
vt 0.402894 0.222713
vt 0.402608 0.528316
vt 0.282952 0.528316
vt 0.283062 0.776072
vt 0.402493 0.776072
vt 0.285926 0.781634
vt 0.403550 0.781634
vt 0.496485 0.974986
vt 0.718798 0.216148
vt 0.596200 0.216148
vt 0.507700 0.026045
vt 0.402492 0.776071
vt 0.283069 0.776071
vt 0.285955 0.781680
vt 0.403556 0.781680
vt 0.496472 0.976258
vt 0.409287 0.781653
vt 0.590524 0.781653
vt 0.502501 0.975584
vt 0.596537 0.781625
vt 0.717847 0.781625
vt 0.508966 0.974559
vt 0.409572 0.781668
vt 0.590245 0.781668
vt 0.502496 0.976262
vt 0.407973 0.528316
vt 0.407840 0.222600
vt 0.591934 0.222600
vt 0.591802 0.528316
vt 0.403762 0.216204
vt 0.284744 0.216204
vt 0.497798 0.023949
vt 0.929636 0.655954
vt 0.931056 0.661551
vt 0.925040 0.661563
vt 0.923977 0.655954
vt 0.907724 0.254234
vt 0.908610 0.260705
vt 0.903457 0.260686
vt 0.902430 0.254177
vt 0.939855 0.743582
vt 0.941232 0.737985
vt 0.946965 0.737985
vt 0.945977 0.743567
vt 0.888765 0.774118
vt 0.891072 0.774183
vt 0.891072 0.777186
vt 0.887810 0.777186
vt 0.913519 0.333065
vt 0.911689 0.333193
vt 0.911689 0.328404
vt 0.914127 0.328404
vt 0.909328 0.747751
vt 0.914718 0.747751
vt 0.916123 0.753333
vt 0.910386 0.753314
vt 0.969995 0.461005
vt 0.965305 0.461003
vt 0.964377 0.454486
vt 0.969172 0.454486
vt 0.906930 0.777747
vt 0.908301 0.772166
vt 0.913893 0.772164
vt 0.912943 0.777719
vt 0.916912 0.310874
vt 0.914679 0.312779
vt 0.912666 0.312779
vt 0.915342 0.310383
vt 0.905613 0.247724
vt 0.904763 0.246589
vt 0.906647 0.244902
vt 0.909564 0.243708
vt 0.908627 0.245610
vt 0.907773 0.247340
vt 0.919019 0.748422
vt 0.921848 0.745936
vt 0.924275 0.745936
vt 0.920668 0.749267
vt 0.940067 0.240178
vt 0.934980 0.240196
vt 0.935919 0.233726
vt 0.941148 0.233669
vt 0.943650 0.361712
vt 0.942672 0.368231
vt 0.938051 0.368221
vt 0.938918 0.361712
vt 0.917370 0.814149
vt 0.920131 0.814942
vt 0.921283 0.817356
vt 0.922454 0.819807
vt 0.918735 0.817606
vt 0.915276 0.814409
vt 0.954120 0.811035
vt 0.954120 0.627564
vt 0.959716 0.628941
vt 0.959716 0.809614
vt 0.946845 0.373043
vt 0.946965 0.620798
vt 0.941232 0.620798
vt 0.941411 0.373043
vt 0.951689 0.806884
vt 0.951689 0.683444
vt 0.957271 0.686302
vt 0.957271 0.807873
vt 0.942090 0.787336
vt 0.942090 0.667912
vt 0.947653 0.666854
vt 0.947653 0.784479
vt 0.913113 0.797627
vt 0.913114 0.613614
vt 0.918695 0.614985
vt 0.918695 0.796222
vt 0.922491 0.412105
vt 0.922683 0.659859
vt 0.917091 0.659861
vt 0.917122 0.412105
vt 0.944659 0.415018
vt 0.938228 0.129036
vt 0.939550 0.130151
vt 0.945958 0.415166
vt 0.948374 0.370871
vt 0.948373 0.247857
vt 0.954883 0.245792
vt 0.954893 0.370047
vt 0.980979 0.286517
vt 0.892178 0.094261
vt 0.896973 0.094261
vt 0.985773 0.286517
vt 0.924376 0.754022
vt 0.924377 0.630848
vt 0.929931 0.633662
vt 0.929931 0.754972
vt 0.913805 0.480464
vt 0.913921 0.728220
vt 0.911689 0.728281
vt 0.911689 0.480531
vt 0.921309 0.604371
vt 0.921309 0.721972
vt 0.915700 0.724865
vt 0.915700 0.605434
vt 0.944878 0.858563
vt 0.938077 0.643046
vt 0.943590 0.645454
vt 0.950391 0.860989
vt 0.961627 0.322261
vt 0.944583 0.113530
vt 0.949507 0.115152
vt 0.966572 0.324150
vt 0.960172 0.256205
vt 0.960173 0.440299
vt 0.953664 0.439218
vt 0.953664 0.257232
vt 0.954873 0.140155
vt 0.965733 0.351554
vt 0.961195 0.354153
vt 0.950322 0.142484
vt 0.928225 0.183881
vt 0.931504 0.397878
vt 0.927286 0.400021
vt 0.924007 0.186025
vt 0.950154 0.414733
vt 0.944511 0.295849
vt 0.951054 0.296407
vt 0.956754 0.416506
vt 0.971434 0.462324
vt 0.953958 0.178782
vt 0.955416 0.178622
vt 0.972952 0.463126
vt 0.947408 0.412342
vt 0.947408 0.293726
vt 0.953878 0.294665
vt 0.953927 0.414619
vt 0.951230 0.213235
vt 0.940475 0.028807
vt 0.947040 0.029403
vt 0.957683 0.211930
vt 0.926858 0.390240
vt 0.926858 0.267642
vt 0.933379 0.265373
vt 0.933329 0.389354
vt 0.901425 0.636523
vt 0.902378 0.851691
vt 0.897201 0.848568
vt 0.896251 0.634043
vt 0.939936 0.695749
vt 0.949537 0.909019
vt 0.944081 0.911776
vt 0.934481 0.698528
vt 0.960329 0.926738
vt 0.945852 0.641284
vt 0.947494 0.640584
vt 0.961972 0.926044
vt 0.957322 0.459948
vt 0.953648 0.746591
vt 0.952053 0.745210
vt 0.955720 0.459128
vt 0.943255 0.874074
vt 0.939427 0.661135
vt 0.944845 0.658527
vt 0.948653 0.870370
vt 0.941555 0.707712
vt 0.941672 0.459957
vt 0.947035 0.459957
vt 0.947214 0.707712
vt 0.927882 0.666696
vt 0.927999 0.418941
vt 0.933241 0.418941
vt 0.933273 0.666697
vt 0.922944 0.695993
vt 0.923065 0.448238
vt 0.925251 0.448303
vt 0.925251 0.696058
vt 0.932047 0.146447
vt 0.932197 0.452144
vt 0.926762 0.452144
vt 0.926895 0.146428
vt 0.944600 0.557613
vt 0.944887 0.252010
vt 0.949508 0.252020
vt 0.949843 0.557613
vt 0.911346 0.513668
vt 0.911497 0.208020
vt 0.913533 0.208619
vt 0.913533 0.513668
vt 0.901940 0.310557
vt 0.902086 0.616207
vt 0.899971 0.616207
vt 0.899971 0.311164
vt 0.917258 0.546871
vt 0.917402 0.241173
vt 0.922489 0.241155
vt 0.922621 0.546871
vt 0.982691 0.683661
vt 0.983038 0.989253
vt 0.977669 0.989253
vt 0.978000 0.683659
vt 0.408151 0.776071
vt 0.591623 0.776071
vt 0.597236 0.528316
vt 0.720916 0.528316
vt 0.720796 0.776071
vt 0.597356 0.776071
vt 0.596367 0.781653
vt 0.717938 0.781653
vt 0.508608 0.976267
vt 0.597487 0.776070
vt 0.597295 0.528316
vt 0.720854 0.528316
vt 0.720661 0.776071
vt 0.591330 0.216204
vt 0.408494 0.216204
vt 0.502530 0.023949
vt 0.596949 0.222724
vt 0.721204 0.222714
vt 0.719139 0.216204
vt 0.596125 0.216204
vt 0.507325 0.023949
vt 0.597087 0.222619
vt 0.721068 0.222669
vt 0.407882 0.776072
vt 0.407851 0.528316
vt 0.591927 0.528316
vt 0.591895 0.776072
vt 0.282946 0.528316
vt 0.282799 0.222667
vt 0.402754 0.222618
vt 0.402609 0.528316
vt 0.407516 0.222723
vt 0.592258 0.222722
vt 0.590907 0.216091
vt 0.408921 0.216091
vt 0.502520 0.026231
vt 0.403692 0.216148
vt 0.285076 0.216148
vt 0.497410 0.026045
vt 0.282660 0.222713
vt 0.402894 0.222713
vt 0.402608 0.528316
vt 0.282952 0.528316
vt 0.283062 0.776072
vt 0.402493 0.776072
vt 0.285926 0.781634
vt 0.403550 0.781634
vt 0.496485 0.974986
vt 0.718798 0.216148
vt 0.596200 0.216148
vt 0.507700 0.026045
vt 0.402492 0.776071
vt 0.283069 0.776071
vt 0.285955 0.781680
vt 0.403556 0.781680
vt 0.496472 0.976258
vt 0.409287 0.781653
vt 0.590524 0.781653
vt 0.502501 0.975584
vt 0.596537 0.781625
vt 0.717847 0.781625
vt 0.508966 0.974559
vt 0.409572 0.781668
vt 0.590245 0.781668
vt 0.502496 0.976262
vt 0.407973 0.528316
vt 0.407840 0.222600
vt 0.591934 0.222600
vt 0.591802 0.528316
vt 0.403762 0.216204
vt 0.284744 0.216204
vt 0.497798 0.023949
vt 0.929636 0.655954
vt 0.931056 0.661551
vt 0.925040 0.661563
vt 0.923977 0.655954
vt 0.907724 0.254234
vt 0.908610 0.260705
vt 0.903457 0.260686
vt 0.902430 0.254177
vt 0.939855 0.743582
vt 0.941232 0.737985
vt 0.946965 0.737985
vt 0.945977 0.743567
vt 0.888765 0.774118
vt 0.891072 0.774183
vt 0.891072 0.777186
vt 0.887810 0.777186
vt 0.913519 0.333065
vt 0.911689 0.333193
vt 0.911689 0.328404
vt 0.914127 0.328404
vt 0.909328 0.747751
vt 0.914718 0.747751
vt 0.916123 0.753333
vt 0.910386 0.753314
vt 0.969995 0.461005
vt 0.965305 0.461003
vt 0.964377 0.454486
vt 0.969172 0.454486
vt 0.906930 0.777747
vt 0.908301 0.772166
vt 0.913893 0.772164
vt 0.912943 0.777719
vt 0.916912 0.310874
vt 0.914679 0.312779
vt 0.912666 0.312779
vt 0.915342 0.310383
vt 0.905613 0.247724
vt 0.904763 0.246589
vt 0.906647 0.244902
vt 0.909564 0.243708
vt 0.908627 0.245610
vt 0.907773 0.247340
vt 0.919019 0.748422
vt 0.921848 0.745936
vt 0.924275 0.745936
vt 0.920668 0.749267
vt 0.940067 0.240178
vt 0.934980 0.240196
vt 0.935919 0.233726
vt 0.941148 0.233669
vt 0.943650 0.361712
vt 0.942672 0.368231
vt 0.938051 0.368221
vt 0.938918 0.361712
vt 0.917370 0.814149
vt 0.920131 0.814942
vt 0.921283 0.817356
vt 0.922454 0.819807
vt 0.918735 0.817606
vt 0.915276 0.814409
vt 0.954120 0.811035
vt 0.954120 0.627564
vt 0.959716 0.628941
vt 0.959716 0.809614
vt 0.946845 0.373043
vt 0.946965 0.620798
vt 0.941232 0.620798
vt 0.941411 0.373043
vt 0.951689 0.806884
vt 0.951689 0.683444
vt 0.957271 0.686302
vt 0.957271 0.807873
vt 0.942090 0.787336
vt 0.942090 0.667912
vt 0.947653 0.666854
vt 0.947653 0.784479
vt 0.913113 0.797627
vt 0.913114 0.613614
vt 0.918695 0.614985
vt 0.918695 0.796222
vt 0.922491 0.412105
vt 0.922683 0.659859
vt 0.917091 0.659861
vt 0.917122 0.412105
vt 0.944659 0.415018
vt 0.938228 0.129036
vt 0.939550 0.130151
vt 0.945958 0.415166
vt 0.948374 0.370871
vt 0.948373 0.247857
vt 0.954883 0.245792
vt 0.954893 0.370047
vt 0.980979 0.286517
vt 0.892178 0.094261
vt 0.896973 0.094261
vt 0.985773 0.286517
vt 0.924376 0.754022
vt 0.924377 0.630848
vt 0.929931 0.633662
vt 0.929931 0.754972
vt 0.913805 0.480464
vt 0.913921 0.728220
vt 0.911689 0.728281
vt 0.911689 0.480531
vt 0.921309 0.604371
vt 0.921309 0.721972
vt 0.915700 0.724865
vt 0.915700 0.605434
vt 0.944878 0.858563
vt 0.938077 0.643046
vt 0.943590 0.645454
vt 0.950391 0.860989
vt 0.961627 0.322261
vt 0.944583 0.113530
vt 0.949507 0.115152
vt 0.966572 0.324150
vt 0.960172 0.256205
vt 0.960173 0.440299
vt 0.953664 0.439218
vt 0.953664 0.257232
vt 0.954873 0.140155
vt 0.965733 0.351554
vt 0.961195 0.354153
vt 0.950322 0.142484
vt 0.928225 0.183881
vt 0.931504 0.397878
vt 0.927286 0.400021
vt 0.924007 0.186025
vt 0.950154 0.414733
vt 0.944511 0.295849
vt 0.951054 0.296407
vt 0.956754 0.416506
vt 0.971434 0.462324
vt 0.953958 0.178782
vt 0.955416 0.178622
vt 0.972952 0.463126
vt 0.947408 0.412342
vt 0.947408 0.293726
vt 0.953878 0.294665
vt 0.953927 0.414619
vt 0.951230 0.213235
vt 0.940475 0.028807
vt 0.947040 0.029403
vt 0.957683 0.211930
vt 0.926858 0.390240
vt 0.926858 0.267642
vt 0.933379 0.265373
vt 0.933329 0.389354
vt 0.901425 0.636523
vt 0.902378 0.851691
vt 0.897201 0.848568
vt 0.896251 0.634043
vt 0.939936 0.695749
vt 0.949537 0.909019
vt 0.944081 0.911776
vt 0.934481 0.698528
vt 0.960329 0.926738
vt 0.945852 0.641284
vt 0.947494 0.640584
vt 0.961972 0.926044
vt 0.957322 0.459948
vt 0.953648 0.746591
vt 0.952053 0.745210
vt 0.955720 0.459128
vt 0.943255 0.874074
vt 0.939427 0.661135
vt 0.944845 0.658527
vt 0.948653 0.870370
vt 0.941555 0.707712
vt 0.941672 0.459957
vt 0.947035 0.459957
vt 0.947214 0.707712
vt 0.927882 0.666696
vt 0.927999 0.418941
vt 0.933241 0.418941
vt 0.933273 0.666697
vt 0.922944 0.695993
vt 0.923065 0.448238
vt 0.925251 0.448303
vt 0.925251 0.696058
vt 0.932047 0.146447
vt 0.932197 0.452144
vt 0.926762 0.452144
vt 0.926895 0.146428
vt 0.944600 0.557613
vt 0.944887 0.252010
vt 0.949508 0.252020
vt 0.949843 0.557613
vt 0.911346 0.513668
vt 0.911497 0.208020
vt 0.913533 0.208619
vt 0.913533 0.513668
vt 0.901940 0.310557
vt 0.902086 0.616207
vt 0.899971 0.616207
vt 0.899971 0.311164
vt 0.917258 0.546871
vt 0.917402 0.241173
vt 0.922489 0.241155
vt 0.922621 0.546871
vt 0.982691 0.683661
vt 0.983038 0.989253
vt 0.977669 0.989253
vt 0.978000 0.683659
vt 0.408151 0.776071
vt 0.591623 0.776071
vn 0.9993 -0.0364 0.0000
vn 0.8053 -0.5929 0.0000
vn -0.9982 -0.0249 -0.0547
vn -0.4150 0.5579 0.7187
vn -0.9936 -0.1118 -0.0149
vn -0.8299 0.5579 0.0000
vn 0.9926 -0.0988 -0.0701
vn -0.5078 -0.0400 0.8605
vn -0.4354 -0.1018 -0.8944
vn -0.4997 -0.1052 0.8598
vn 0.4334 0.4987 -0.7507
vn -0.3385 0.5294 -0.7779
vn 0.4963 -0.1222 0.8595
vn -0.4996 -0.0395 -0.8653
vn 0.4023 -0.5939 0.6967
vn 0.8429 0.5294 -0.0958
vn 0.4997 -0.0361 0.8655
vn -0.4071 -0.5807 -0.7051
vn -0.4147 -0.5853 0.6967
vn -0.7991 -0.5978 -0.0637
vn 0.4051 -0.5863 -0.7016
vn 0.4996 -0.0381 -0.8654
vn 0.4150 0.5579 0.7187
vn -0.0011 -0.3808 -0.9247
vn 0.7968 0.2812 -0.5349
vn 0.7989 -0.3841 -0.4628
vn 0.7989 -0.3858 0.4614
vn 0.8645 0.2751 0.4207
vn -0.0080 -0.3854 0.9227
vn -0.8293 0.2887 0.4785
vn -0.8174 -0.3884 0.4254
vn -0.7970 0.2733 -0.5386
vn 0.0466 0.9956 -0.0808
vn -0.7820 -0.3755 -0.4975
vn 0.0649 0.2804 -0.9577
vn -0.0004 0.2835 0.9590
vn -0.0053 -0.9994 -0.0332
vn 0.4727 -0.3262 -0.8187
vn 0.8652 -0.0430 -0.4995
vn 0.9443 -0.3292 0.0000
vn 0.4720 -0.3297 0.8176
vn -0.4834 -0.3265 0.8122
vn -0.8817 -0.0307 0.4708
vn -0.6581 0.6124 -0.4381
vn -0.9713 0.2378 -0.0002
vn -0.6841 0.6132 0.3950
vn -0.9422 -0.3266 -0.0748
vn -0.8511 -0.0452 -0.5230
vn -0.4731 -0.3236 -0.8194
vn -0.0011 -0.6385 -0.7696
vn 0.6919 0.5574 -0.4589
vn 0.4854 0.2396 -0.8408
vn 0.0514 0.5574 -0.8287
vn 0.0000 0.6132 0.7900
vn 0.4863 0.2325 0.8423
vn 0.7084 0.6124 0.3508
vn -0.3779 0.2269 -0.8976
vn -0.4853 0.2408 0.8405
vn 0.9660 0.2283 -0.1215
vn -0.0068 -0.6460 0.7633
vn 0.6615 -0.6445 -0.3835
vn 0.6596 -0.6482 0.3805
vn -0.6509 -0.6359 -0.4148
vn -0.6709 -0.6539 0.3498
vn 0.0000 -0.0448 -0.9990
vn -0.0051 -0.0425 0.9991
vn 0.8648 -0.0418 0.5003
vn 0.8475 -0.0439 -0.5290
vn -0.0018 -0.1295 0.9916
vn 0.8700 -0.1652 0.4645
vn -0.8324 -0.1689 -0.5278
vn 0.0344 -0.0456 -0.9984
vn -0.8648 -0.1185 0.4879
vn -0.7820 -0.3754 -0.4975
vn 0.9442 -0.3292 0.0000
vn 0.7084 0.6124 0.3509
usemtl Crystal
s off
f 62/1/1 71/2/1 13/3/1 11/4/1
f 12/5/2 16/6/2 57/7/2
f 31/8/3 64/9/3 65/10/3 44/11/3
f 27/12/4 51/13/4 39/14/4
f 64/9/5 25/15/5 35/16/5 65/10/5
f 36/17/6 28/18/6 38/19/6
f 6/20/7 18/21/7 71/2/7 62/1/7
f 22/22/8 70/23/8 63/24/8 30/25/8
f 66/26/9 34/27/9 48/28/9 67/29/9
f 70/23/10 52/30/10 26/31/10 63/24/10
f 8/32/11 50/33/11 42/34/11
f 49/35/12 33/36/12 37/37/12
f 17/38/13 53/39/13 69/40/13 72/41/13
f 45/42/14 66/26/14 67/29/14 4/43/14
f 15/44/15 24/45/15 58/46/15
f 19/47/16 5/48/16 41/49/16
f 72/41/17 69/40/17 21/50/17 14/51/17
f 46/52/18 3/53/18 55/54/18
f 23/55/19 29/56/19 59/57/19
f 32/58/20 43/59/20 60/60/20
f 2/61/21 9/62/21 56/63/21
f 68/64/22 47/65/22 7/66/22 61/67/22
f 54/68/23 20/69/23 40/70/23
f 1/71/24 2/72/24 3/73/24 4/74/24
f 5/75/25 6/76/25 7/77/25 8/78/25
f 9/79/26 10/80/26 11/81/26 12/82/26
f 13/83/27 14/84/27 15/85/27 16/86/27
f 17/87/28 18/88/28 19/89/28 20/90/28
f 21/91/29 22/92/29 23/93/29 24/94/29
f 25/95/30 26/96/30 27/97/30 28/98/30
f 29/99/31 30/100/31 31/101/31 32/102/31
f 33/103/32 34/104/32 35/105/32 36/106/32
f 37/107/33 38/108/33 39/109/33 40/110/33 41/111/33 42/112/33
f 43/113/34 44/114/34 45/115/34 46/116/34
f 47/117/35 48/118/35 49/119/35 50/120/35
f 51/121/36 52/122/36 53/123/36 54/124/36
f 55/125/37 56/126/37 57/127/37 58/128/37 59/129/37 60/130/37
f 1/131/38 10/132/38 9/133/38 2/134/38
f 62/135/39 11/136/39 10/137/39 61/138/39
f 11/139/40 13/140/40 16/141/40 12/142/40
f 14/143/41 21/144/41 24/145/41 15/146/41
f 22/147/42 30/148/42 29/149/42 23/150/42
f 64/151/43 31/152/43 30/153/43 63/154/43
f 36/155/44 38/156/44 37/157/44 33/158/44
f 28/159/45 36/160/45 35/161/45 25/162/45
f 27/163/46 39/164/46 38/165/46 28/166/46
f 31/167/47 44/168/47 43/169/47 32/170/47
f 66/171/48 45/172/48 44/173/48 65/174/48
f 3/175/49 46/176/49 45/177/49 4/178/49
f 55/179/50 3/180/50 2/181/50 56/182/50
f 8/183/51 42/184/51 41/185/51 5/186/51
f 7/187/52 47/188/52 50/189/52 8/190/52
f 42/191/53 50/192/53 49/193/53 37/194/53
f 39/195/54 51/196/54 54/197/54 40/198/54
f 20/199/55 54/200/55 53/201/55 17/202/55
f 19/203/56 41/204/56 40/205/56 20/206/56
f 33/207/57 49/208/57 48/209/57 34/210/57
f 26/211/58 52/212/58 51/213/58 27/214/58
f 5/215/59 19/216/59 18/217/59 6/218/59
f 23/219/60 59/220/60 58/221/60 24/222/60
f 12/223/61 57/224/61 56/225/61 9/226/61
f 57/227/62 16/228/62 15/229/62 58/230/62
f 46/231/63 55/232/63 60/233/63 43/234/63
f 59/235/64 29/236/64 32/237/64 60/238/64
f 4/239/65 67/240/65 68/241/65 1/242/65
f 21/243/66 69/244/66 70/245/66 22/246/66
f 13/247/67 71/248/67 72/249/67 14/250/67
f 6/251/68 62/252/68 61/253/68 7/254/68
f 69/255/69 53/256/69 52/257/69 70/258/69
f 71/259/70 18/260/70 17/261/70 72/262/70
f 34/263/71 66/264/71 65/265/71 35/266/71
f 67/267/72 48/268/72 47/269/72 68/270/72
f 25/271/73 64/272/73 63/273/73 26/274/73
f 1/275/22 68/64/22 61/67/22 10/276/22
f 134/277/1 143/278/1 85/279/1 83/280/1
f 84/281/2 88/282/2 129/283/2
f 103/284/3 136/285/3 137/286/3 116/287/3
f 99/288/4 123/289/4 111/290/4
f 136/285/5 97/291/5 107/292/5 137/286/5
f 108/293/6 100/294/6 110/295/6
f 78/296/7 90/297/7 143/278/7 134/277/7
f 94/298/8 142/299/8 135/300/8 102/301/8
f 138/302/9 106/303/9 120/304/9 139/305/9
f 142/299/10 124/306/10 98/307/10 135/300/10
f 80/308/11 122/309/11 114/310/11
f 121/311/12 105/312/12 109/313/12
f 89/314/13 125/315/13 141/316/13 144/317/13
f 117/318/14 138/302/14 139/305/14 76/319/14
f 87/320/15 96/321/15 130/322/15
f 91/323/16 77/324/16 113/325/16
f 144/317/17 141/316/17 93/326/17 86/327/17
f 118/328/18 75/329/18 127/330/18
f 95/331/19 101/332/19 131/333/19
f 104/334/20 115/335/20 132/336/20
f 74/337/21 81/338/21 128/339/21
f 140/340/22 119/341/22 79/342/22 133/343/22
f 126/344/23 92/345/23 112/346/23
f 73/347/24 74/348/24 75/349/24 76/350/24
f 77/351/25 78/352/25 79/353/25 80/354/25
f 81/355/26 82/356/26 83/357/26 84/358/26
f 85/359/27 86/360/27 87/361/27 88/362/27
f 89/363/28 90/364/28 91/365/28 92/366/28
f 93/367/29 94/368/29 95/369/29 96/370/29
f 97/371/30 98/372/30 99/373/30 100/374/30
f 101/375/31 102/376/31 103/377/31 104/378/31
f 105/379/32 106/380/32 107/381/32 108/382/32
f 109/383/33 110/384/33 111/385/33 112/386/33 113/387/33 114/388/33
f 115/389/74 116/390/74 117/391/74 118/392/74
f 119/393/35 120/394/35 121/395/35 122/396/35
f 123/397/36 124/398/36 125/399/36 126/400/36
f 127/401/37 128/402/37 129/403/37 130/404/37 131/405/37 132/406/37
f 73/407/38 82/408/38 81/409/38 74/410/38
f 134/411/39 83/412/39 82/413/39 133/414/39
f 83/415/75 85/416/75 88/417/75 84/418/75
f 86/419/41 93/420/41 96/421/41 87/422/41
f 94/423/42 102/424/42 101/425/42 95/426/42
f 136/427/43 103/428/43 102/429/43 135/430/43
f 108/431/44 110/432/44 109/433/44 105/434/44
f 100/435/45 108/436/45 107/437/45 97/438/45
f 99/439/46 111/440/46 110/441/46 100/442/46
f 103/443/47 116/444/47 115/445/47 104/446/47
f 138/447/48 117/448/48 116/449/48 137/450/48
f 75/451/49 118/452/49 117/453/49 76/454/49
f 127/455/50 75/456/50 74/457/50 128/458/50
f 80/459/51 114/460/51 113/461/51 77/462/51
f 79/463/52 119/464/52 122/465/52 80/466/52
f 114/467/53 122/468/53 121/469/53 109/470/53
f 111/471/54 123/472/54 126/473/54 112/474/54
f 92/475/55 126/476/55 125/477/55 89/478/55
f 91/479/76 113/480/76 112/481/76 92/482/76
f 105/483/57 121/484/57 120/485/57 106/486/57
f 98/487/58 124/488/58 123/489/58 99/490/58
f 77/491/59 91/492/59 90/493/59 78/494/59
f 95/495/60 131/496/60 130/497/60 96/498/60
f 84/499/61 129/500/61 128/501/61 81/502/61
f 129/503/62 88/504/62 87/505/62 130/506/62
f 118/507/63 127/508/63 132/509/63 115/510/63
f 131/511/64 101/512/64 104/513/64 132/514/64
f 76/515/65 139/516/65 140/517/65 73/518/65
f 93/519/66 141/520/66 142/521/66 94/522/66
f 85/523/67 143/524/67 144/525/67 86/526/67
f 78/527/68 134/528/68 133/529/68 79/530/68
f 141/531/69 125/532/69 124/533/69 142/534/69
f 143/535/70 90/536/70 89/537/70 144/538/70
f 106/539/71 138/540/71 137/541/71 107/542/71
f 139/543/72 120/544/72 119/545/72 140/546/72
f 97/547/73 136/548/73 135/549/73 98/550/73
f 73/551/22 140/340/22 133/343/22 82/552/22
